<svg width="277" height="276" viewBox="0 0 277 276" fill="none" xmlns="http://www.w3.org/2000/svg">
<path d="M138.671 275.45C214.734 275.45 276.396 213.789 276.396 137.725C276.396 61.6616 214.734 0 138.671 0C62.6073 0 0.945618 61.6616 0.945618 137.725C0.945618 213.789 62.6073 275.45 138.671 275.45Z" fill="#F2E6DC"/>
<path d="M36.7398 157.273C36.7382 157.273 36.7367 157.273 36.735 157.273L26.1571 157.122C26.0691 157.121 25.9852 157.085 25.9238 157.022C25.8626 156.958 25.8287 156.873 25.83 156.785L25.8984 152.008C24.4383 151.567 23.0305 150.96 21.7064 150.202L18.2806 153.531C18.149 153.659 17.9392 153.656 17.8113 153.525L10.4384 145.938C10.3771 145.875 10.3433 145.79 10.3446 145.702C10.346 145.614 10.3821 145.53 10.4453 145.469L13.8711 142.139C13.1512 140.794 12.585 139.37 12.1855 137.897L7.40829 137.829C7.32024 137.828 7.2364 137.792 7.17499 137.729C7.11373 137.666 7.07986 137.581 7.08122 137.493L7.23234 126.915C7.2349 126.731 7.38602 126.591 7.5689 126.588L12.3462 126.656C12.7876 125.196 13.3943 123.789 14.1525 122.464L10.8233 119.038C10.6956 118.907 10.6986 118.697 10.83 118.569L18.4167 111.196C18.4799 111.135 18.5654 111.102 18.6527 111.102C18.7407 111.104 18.8246 111.14 18.886 111.203L22.2152 114.629C23.5605 113.909 24.985 113.343 26.4568 112.943L26.5251 108.166C26.5277 107.982 26.6712 107.836 26.8617 107.839L37.4396 107.99C37.5277 107.991 37.6115 108.027 37.6729 108.09C37.7342 108.153 37.768 108.238 37.7667 108.326L37.6983 113.104C39.1584 113.545 40.5662 114.152 41.8903 114.91L45.3161 111.581C45.3793 111.519 45.4728 111.489 45.5521 111.487C45.6402 111.488 45.724 111.524 45.7854 111.587L53.1582 119.174C53.2858 119.306 53.2828 119.516 53.1514 119.643L49.7257 122.973C50.4454 124.317 51.0116 125.742 51.4113 127.215L56.1884 127.283C56.2765 127.284 56.3603 127.32 56.4217 127.383C56.483 127.446 56.5169 127.531 56.5155 127.619L56.3644 138.197C56.3618 138.38 56.2196 138.526 56.0278 138.524L51.2507 138.456C50.8089 139.916 50.2024 141.324 49.4444 142.648L52.7736 146.074C52.9012 146.205 52.8982 146.415 52.7668 146.543L45.1802 153.916C45.1171 153.977 45.0328 154.011 44.9442 154.01C44.8561 154.008 44.7723 153.972 44.7109 153.909L41.3817 150.483C40.0364 151.203 38.6118 151.769 37.1401 152.169L37.0717 156.946C37.069 157.128 36.9209 157.273 36.7398 157.273ZM26.4982 156.463L36.4126 156.605L36.4797 151.908C36.4818 151.758 36.5839 151.628 36.7287 151.591C38.3156 151.182 39.8484 150.573 41.2842 149.781C41.415 149.708 41.578 149.733 41.6824 149.84L44.9556 153.208L52.0663 146.298L48.793 142.93C48.6888 142.823 48.6692 142.659 48.7453 142.53C49.5775 141.118 50.2303 139.603 50.6848 138.028C50.7265 137.885 50.8605 137.789 51.0085 137.788L55.7056 137.856L55.8474 127.941L51.1503 127.874C51.0006 127.872 50.871 127.77 50.8336 127.625C50.4239 126.038 49.8148 124.505 49.0234 123.07C48.9512 122.939 48.9754 122.776 49.0827 122.672L52.4507 119.398L45.5407 112.288L42.1724 115.561C42.0654 115.665 41.9019 115.685 41.7726 115.609C40.36 114.776 38.8455 114.124 37.2709 113.669C37.1271 113.628 37.029 113.495 37.0311 113.346L37.0984 108.648L27.184 108.507L27.1168 113.204C27.1147 113.353 27.0127 113.483 26.8679 113.52C25.281 113.93 23.7482 114.539 22.3124 115.331C22.181 115.403 22.0183 115.378 21.9141 115.271L18.6409 111.903L11.5303 118.813L14.8036 122.181C14.9078 122.289 14.9275 122.452 14.8515 122.581C14.0189 123.994 13.3661 125.509 12.9119 127.083C12.8703 127.227 12.7436 127.326 12.5883 127.323L7.89131 127.255L7.74952 137.17L12.4466 137.237C12.5962 137.239 12.726 137.341 12.7633 137.486C13.1726 139.073 13.7817 140.605 14.5735 142.041C14.6457 142.172 14.6215 142.335 14.5142 142.44L11.1458 145.713L18.056 152.823L21.4243 149.55C21.5315 149.446 21.6948 149.426 21.8241 149.502C23.2364 150.335 24.7511 150.987 26.3259 151.442C26.4696 151.483 26.5677 151.616 26.5656 151.766L26.4982 156.463ZM31.7999 143.893C28.8407 143.893 25.8845 142.746 23.6639 140.461C19.3052 135.976 19.4081 128.78 23.8935 124.422C28.3785 120.063 35.5736 120.166 39.9327 124.651C44.2914 129.136 44.1884 136.331 39.7033 140.69C37.5027 142.829 34.6499 143.893 31.7999 143.893ZM31.7968 121.882C29.1132 121.882 26.4278 122.884 24.3559 124.898C20.1332 129.001 20.0363 135.775 24.14 139.998C28.2436 144.221 35.0177 144.318 39.2407 140.214C43.4634 136.11 43.5603 129.336 39.4566 125.113C37.3663 122.963 34.5826 121.882 31.7968 121.882Z" fill="#F0F8EC"/>
<path d="M114.814 180.827C160.917 180.827 198.291 143.453 198.291 97.3501C198.291 51.2472 160.917 13.8735 114.814 13.8735C68.711 13.8735 31.3372 51.2472 31.3372 97.3501C31.3372 143.453 68.711 180.827 114.814 180.827Z" fill="#F0F8EC"/>
<path d="M126.919 181.159C126.752 181.159 126.589 181.158 126.423 181.157C104.037 181.028 83.0414 172.19 67.3034 156.269C51.5654 140.349 42.9691 119.253 43.098 96.8674C43.2269 74.4818 52.0657 53.4861 67.9857 37.7483C83.7874 22.1275 104.692 13.5416 126.891 13.5416C127.058 13.5416 127.221 13.5421 127.388 13.543C149.773 13.6718 170.769 22.5105 186.507 38.4307C202.245 54.351 210.841 75.4469 210.712 97.8326C210.583 120.218 201.745 141.214 185.825 156.952C170.023 172.572 149.118 181.159 126.919 181.159ZM126.898 14.2053C81.2699 14.2053 44.025 51.1854 43.7617 96.8714C43.6339 119.08 52.1622 140.009 67.7754 155.803C83.3887 171.597 104.218 180.366 126.426 180.493C148.636 180.626 169.564 172.093 185.358 156.48C201.152 140.866 209.921 120.037 210.049 97.8287C210.312 51.9833 173.229 14.4706 127.384 14.2066C127.224 14.2057 127.057 14.2053 126.898 14.2053Z" fill="white"/>
<path d="M127.051 57.1891C103.868 57.1891 81.0809 53.2858 61.1527 45.901C60.981 45.8374 60.8932 45.6464 60.9571 45.4745C61.0209 45.3026 61.2117 45.215 61.3835 45.2786C81.2385 52.6363 103.946 56.5254 127.051 56.5254C149.979 56.5254 172.535 52.6923 192.281 45.4405C192.453 45.3772 192.644 45.4656 192.707 45.6376C192.77 45.8097 192.682 46.0004 192.51 46.0636C172.692 53.3418 150.057 57.1891 127.051 57.1891Z" fill="white"/>
<path d="M60.5041 148.286C60.37 148.286 60.2436 148.204 60.1935 148.071C60.129 147.899 60.2157 147.708 60.3873 147.643C80.5058 140.072 103.558 136.069 127.051 136.069C150.419 136.069 173.362 140.031 193.403 147.526C193.574 147.59 193.662 147.781 193.598 147.953C193.533 148.125 193.342 148.212 193.17 148.147C173.204 140.68 150.34 136.733 127.051 136.733C103.637 136.733 80.6654 140.72 60.6208 148.264C60.5826 148.279 60.543 148.286 60.5041 148.286Z" fill="white"/>
<path d="M126.905 181.158C115.198 181.158 104.21 172.412 95.9647 156.53C87.7548 140.717 83.2335 119.699 83.2335 97.3499C83.2335 75.0004 87.7549 53.9831 95.9647 38.1701C104.21 22.2881 115.199 13.5414 126.905 13.5414C138.612 13.5414 149.6 22.2881 157.845 38.1701C166.055 53.9832 170.577 75.0002 170.577 97.3499C170.577 119.7 166.055 140.717 157.845 156.53C149.6 172.412 138.612 181.158 126.905 181.158ZM126.905 14.2053C103.191 14.2053 83.8971 51.5038 83.8971 97.3501C83.8971 143.196 103.191 180.495 126.905 180.495C150.62 180.495 169.913 143.196 169.913 97.3501C169.913 51.5038 150.62 14.2053 126.905 14.2053Z" fill="white"/>
<path d="M126.905 181.048C126.722 181.048 126.573 180.899 126.573 180.716V14.0512C126.573 13.8679 126.722 13.7193 126.905 13.7193C127.088 13.7193 127.237 13.8679 127.237 14.0512V180.716C127.237 180.899 127.088 181.048 126.905 181.048Z" fill="white"/>
<path d="M210.4 97.8257C210.399 97.8257 210.398 97.8257 210.397 97.8257L43.3764 96.5237C43.1931 96.5222 43.0457 96.3726 43.0471 96.1893C43.0486 96.0068 43.1968 95.8599 43.379 95.8599C43.3797 95.8599 43.3806 95.8599 43.3815 95.8599L210.403 97.1619C210.586 97.1634 210.733 97.313 210.732 97.4964C210.731 97.6788 210.582 97.8257 210.4 97.8257Z" fill="white"/>
<path d="M271.54 222.499H74.0139C73.8305 222.499 73.682 222.35 73.682 222.167V72.4505C73.682 72.2671 73.8305 72.1186 74.0139 72.1186H116.301C116.484 72.1186 116.633 72.2671 116.633 72.4505C116.633 72.6338 116.484 72.7824 116.301 72.7824H74.3458V221.835H271.208V72.7824H179.519C179.335 72.7824 179.187 72.6338 179.187 72.4505C179.187 72.2671 179.335 72.1186 179.519 72.1186H271.54C271.723 72.1186 271.872 72.2671 271.872 72.4505V222.167C271.872 222.35 271.723 222.499 271.54 222.499Z" fill="#363E44"/>
<path d="M265.342 203.964V78.6477L80.2109 78.6477L80.2109 203.964L265.342 203.964Z" fill="white"/>
<path d="M176.393 213.207C176.865 211.208 175.627 209.206 173.629 208.734C171.63 208.262 169.628 209.5 169.156 211.498C168.684 213.496 169.921 215.499 171.92 215.971C173.918 216.443 175.921 215.205 176.393 213.207Z" fill="white"/>
<path d="M193.569 225.134H187.721C187.721 229.521 184.165 233.077 179.778 233.077H165.775C161.388 233.077 157.832 229.521 157.832 225.134H151.984L146.136 256.212V258.811H199.417V256.212L193.569 225.134Z" fill="#F0F8EC"/>
<path d="M199.417 262.391H146.137C145.953 262.391 145.805 262.243 145.805 262.059C145.805 261.876 145.953 261.728 146.137 261.728H199.417C199.6 261.728 199.749 261.876 199.749 262.059C199.749 262.243 199.6 262.391 199.417 262.391Z" fill="#F0F8EC"/>
<path d="M112.8 122.656H102.913C102.73 122.656 102.581 122.508 102.581 122.324C102.581 122.141 102.73 121.992 102.913 121.992H112.582L119.326 117.037H149.656L156.737 110.915H188.093L199.632 100.938C199.771 100.819 199.98 100.833 200.101 100.972C200.22 101.111 200.205 101.321 200.067 101.44L188.34 111.578H156.984L149.903 117.7H119.543L112.8 122.656Z" fill="#D87355"/>
<path d="M119.978 132.657H92.2253C92.042 132.657 91.8934 132.509 91.8934 132.325C91.8934 132.142 92.042 131.993 92.2253 131.993H119.73L135.82 118.083H142.158L147.603 113.375H171.984L179.988 120.296H191.038C191.222 120.296 191.37 120.444 191.37 120.628C191.37 120.811 191.222 120.959 191.038 120.959H179.741L171.737 114.039H147.85L142.405 118.746H136.067L119.978 132.657Z" fill="#EFBC73"/>
<path d="M180.105 121.753C180.843 121.753 181.441 121.236 181.441 120.598C181.441 119.96 180.843 119.443 180.105 119.443C179.368 119.443 178.77 119.96 178.77 120.598C178.77 121.236 179.368 121.753 180.105 121.753Z" fill="#EFBC73"/>
<path d="M171.757 114.745C172.495 114.745 173.093 114.229 173.093 113.591C173.093 112.953 172.495 112.436 171.757 112.436C171.02 112.436 170.422 112.953 170.422 113.591C170.422 114.229 171.02 114.745 171.757 114.745Z" fill="#EFBC73"/>
<path d="M147.63 114.745C148.367 114.745 148.965 114.229 148.965 113.591C148.965 112.953 148.367 112.436 147.63 112.436C146.892 112.436 146.295 112.953 146.295 113.591C146.295 114.229 146.892 114.745 147.63 114.745Z" fill="#EFBC73"/>
<path d="M142.59 119.503C143.328 119.503 143.926 118.986 143.926 118.348C143.926 117.711 143.328 117.194 142.59 117.194C141.853 117.194 141.255 117.711 141.255 118.348C141.255 118.986 141.853 119.503 142.59 119.503Z" fill="#EFBC73"/>
<path d="M136.128 119.585C136.865 119.585 137.463 119.068 137.463 118.43C137.463 117.792 136.865 117.275 136.128 117.275C135.39 117.275 134.792 117.792 134.792 118.43C134.792 119.068 135.39 119.585 136.128 119.585Z" fill="#EFBC73"/>
<path d="M119.966 133.304C120.703 133.304 121.301 132.787 121.301 132.149C121.301 131.511 120.703 130.994 119.966 130.994C119.228 130.994 118.63 131.511 118.63 132.149C118.63 132.787 119.228 133.304 119.966 133.304Z" fill="#EFBC73"/>
<path d="M120.868 113.93L120.434 113.428L134.507 101.261H176.3L182.52 95.8821L182.954 96.3842L176.547 101.924H134.754L120.868 113.93Z" fill="#F0F8EC"/>
<path d="M108.586 124.55H92.0575V123.886H108.338L120.434 113.428L120.868 113.93L108.586 124.55Z" fill="#F0F8EC"/>
<path d="M108.173 125.305C108.911 125.305 109.509 124.788 109.509 124.15C109.509 123.512 108.911 122.995 108.173 122.995C107.436 122.995 106.838 123.512 106.838 124.15C106.838 124.788 107.436 125.305 108.173 125.305Z" fill="#F0F8EC"/>
<path d="M176.499 102.821C177.236 102.821 177.834 102.305 177.834 101.667C177.834 101.029 177.236 100.512 176.499 100.512C175.761 100.512 175.163 101.029 175.163 101.667C175.163 102.305 175.761 102.821 176.499 102.821Z" fill="#F0F8EC"/>
<path d="M240.486 140.16H161.895V195.98H240.486V140.16Z" fill="#F2E6DC"/>
<path d="M240.486 140.16H161.895V145.114H240.486V140.16Z" fill="#F0F8EC"/>
<path d="M240.486 196.312H161.895C161.711 196.312 161.563 196.164 161.563 195.98V140.16C161.563 139.977 161.711 139.828 161.895 139.828H240.486C240.669 139.828 240.818 139.977 240.818 140.16V195.98C240.818 196.164 240.669 196.312 240.486 196.312ZM162.227 195.648H240.154V140.492H162.227V195.648Z" fill="#F0F8EC"/>
<path d="M165.189 143.798C165.811 143.798 166.316 143.294 166.316 142.672C166.316 142.05 165.811 141.545 165.189 141.545C164.567 141.545 164.062 142.05 164.062 142.672C164.062 143.294 164.567 143.798 165.189 143.798Z" fill="white"/>
<path d="M168.829 143.798C169.451 143.798 169.956 143.294 169.956 142.672C169.956 142.05 169.451 141.545 168.829 141.545C168.207 141.545 167.703 142.05 167.703 142.672C167.703 143.294 168.207 143.798 168.829 143.798Z" fill="white"/>
<path d="M172.469 143.798C173.092 143.798 173.596 143.294 173.596 142.672C173.596 142.05 173.092 141.545 172.469 141.545C171.847 141.545 171.343 142.05 171.343 142.672C171.343 143.294 171.847 143.798 172.469 143.798Z" fill="white"/>
<path d="M236.882 185.44H166.029C165.845 185.44 165.697 185.291 165.697 185.108C165.697 184.925 165.845 184.776 166.029 184.776H236.882C237.065 184.776 237.213 184.925 237.213 185.108C237.213 185.291 237.065 185.44 236.882 185.44Z" fill="#F0F8EC"/>
<path d="M236.882 177.891H166.029C165.845 177.891 165.697 177.743 165.697 177.56C165.697 177.376 165.845 177.228 166.029 177.228H236.882C237.065 177.228 237.213 177.376 237.213 177.56C237.213 177.743 237.065 177.891 236.882 177.891Z" fill="#F0F8EC"/>
<path d="M236.882 170.343H166.029C165.845 170.343 165.697 170.195 165.697 170.011C165.697 169.828 165.845 169.679 166.029 169.679H236.882C237.065 169.679 237.213 169.828 237.213 170.011C237.213 170.195 237.065 170.343 236.882 170.343Z" fill="#F0F8EC"/>
<path d="M236.882 162.795H166.029C165.845 162.795 165.697 162.646 165.697 162.463C165.697 162.279 165.845 162.131 166.029 162.131H236.882C237.065 162.131 237.213 162.279 237.213 162.463C237.213 162.646 237.065 162.795 236.882 162.795Z" fill="#F0F8EC"/>
<path d="M236.882 155.246H166.029C165.845 155.246 165.697 155.098 165.697 154.914C165.697 154.731 165.845 154.583 166.029 154.583H236.882C237.065 154.583 237.213 154.731 237.213 154.914C237.213 155.098 237.065 155.246 236.882 155.246Z" fill="#F0F8EC"/>
<path d="M225.073 192.988C224.889 192.988 224.741 192.84 224.741 192.656V147.366C224.741 147.183 224.889 147.034 225.073 147.034C225.256 147.034 225.405 147.183 225.405 147.366V192.656C225.405 192.84 225.256 192.988 225.073 192.988Z" fill="#F0F8EC"/>
<path d="M213.264 192.988C213.08 192.988 212.932 192.84 212.932 192.656V147.366C212.932 147.183 213.08 147.034 213.264 147.034C213.447 147.034 213.596 147.183 213.596 147.366V192.656C213.596 192.84 213.447 192.988 213.264 192.988Z" fill="#F0F8EC"/>
<path d="M201.455 192.988C201.272 192.988 201.123 192.84 201.123 192.656V147.366C201.123 147.183 201.272 147.034 201.455 147.034C201.639 147.034 201.787 147.183 201.787 147.366V192.656C201.787 192.84 201.639 192.988 201.455 192.988Z" fill="#F0F8EC"/>
<path d="M189.647 192.988C189.463 192.988 189.315 192.84 189.315 192.656V147.366C189.315 147.183 189.463 147.034 189.647 147.034C189.83 147.034 189.978 147.183 189.978 147.366V192.656C189.978 192.84 189.83 192.988 189.647 192.988Z" fill="#F0F8EC"/>
<path d="M177.838 192.988C177.654 192.988 177.506 192.84 177.506 192.656V147.366C177.506 147.183 177.654 147.034 177.838 147.034C178.021 147.034 178.17 147.183 178.17 147.366V192.656C178.17 192.84 178.021 192.988 177.838 192.988Z" fill="#F0F8EC"/>
<path d="M235.533 132.85L216.178 134.829L220.462 139.524L198.861 157.804L191.122 148.238L164.377 175.596L188.551 158.999L196.22 169.015L227.563 147.306L231.793 151.942L235.533 132.85Z" fill="#D87355"/>
<path d="M119.879 156.932H93.5081V179.515H119.879V156.932Z" fill="#F0F8EC"/>
<path d="M157.217 129.886H130.846V152.469H157.217V129.886Z" fill="white"/>
<path d="M157.548 152.801H130.514V129.555H157.548V152.801ZM131.178 152.137H156.885V130.218H131.178V152.137Z" fill="#8B865C"/>
<path d="M146.449 156.547H122.85V157.211H146.449V156.547Z" fill="#F0F8EC"/>
<path d="M141.438 161.384H122.85V162.048H141.438V161.384Z" fill="#F0F8EC"/>
<path d="M144.57 165.765H122.85V166.429H144.57V165.765Z" fill="#F0F8EC"/>
<path d="M137.792 170.374H122.85V171.038H137.792V170.374Z" fill="#F0F8EC"/>
<path d="M140.926 136.704C141.34 136.497 141.769 136.353 142.203 136.268L142.038 133.92C141.305 134.033 140.577 134.26 139.879 134.609C138.182 135.457 136.957 136.878 136.32 138.521L138.578 139.186C139.029 138.144 139.834 137.25 140.926 136.704Z" fill="#EFBC73"/>
<path d="M138.448 142.847C138.159 142.033 138.095 141.18 138.23 140.366L135.972 139.702C135.69 141.071 135.794 142.529 136.343 143.9L138.448 142.847Z" fill="#EFBC73"/>
<path d="M149.983 138.454L147.878 139.507C148.71 141.851 147.681 144.51 145.401 145.651C143.12 146.791 140.375 146.02 138.999 143.948L136.894 145.001C138.857 148.225 143.012 149.464 146.448 147.745C149.884 146.027 151.386 141.96 149.983 138.454Z" fill="#D87355"/>
<path d="M143.43 136.183C144.972 136.269 146.437 137.065 147.328 138.406L149.433 137.354C148.091 135.15 145.726 133.874 143.266 133.835L143.43 136.183Z" fill="#8B865C"/>
<path d="M256.482 96.6385H203.715V104.186H256.482V96.6385Z" fill="#F2E6DC"/>
<path d="M256.924 106.992H204.157V114.539H256.924V106.992Z" fill="#F2E6DC"/>
<path d="M256.924 117.345H204.157V124.892H256.924V117.345Z" fill="#F2E6DC"/>
<path d="M172.696 73.1455C172.474 58.96 160.913 47.5272 146.675 47.5272C146.259 47.5272 145.846 47.5392 145.435 47.5585V73.1455H172.696Z" fill="#D87355"/>
<path d="M142.867 75.7136V59.8112C134.29 60.2136 127.459 67.2935 127.459 75.9704C127.459 84.9056 134.702 92.1491 143.638 92.1491C152.573 92.1491 159.816 84.9056 159.816 75.9704C159.816 75.8843 159.811 75.7994 159.81 75.7136H142.867Z" fill="#EFBC73"/>
<path d="M262.249 230.443H200.992C200.808 230.443 200.66 230.294 200.66 230.111V214.348C200.66 214.165 200.808 214.016 200.992 214.016H262.249C262.432 214.016 262.581 214.165 262.581 214.348V230.111C262.581 230.294 262.432 230.443 262.249 230.443ZM201.324 229.779H261.917V214.68H201.324V229.779Z" fill="#F0F8EC"/>
<path d="M254.676 209.161C252.064 208.369 251.755 204.509 249.576 204.564C244.18 204.7 241.73 221.541 237.638 221.318C234.26 221.135 233.707 209.538 229.796 209.161C225.62 208.76 222.676 221.628 218.166 221.318C214.207 221.046 214.365 210.979 207.349 207.609C206.17 207.043 204.935 206.737 203.696 206.615V226.852H259.544V207.799C257.437 209.247 255.868 209.522 254.676 209.161Z" fill="#EFBC73"/>
<path d="M105.045 112.422C98.4614 112.422 94.2428 105.418 97.3212 99.5985L104.876 85.3185L112.691 99.4571C115.911 105.281 111.699 112.422 105.045 112.422Z" fill="#8B865C"/>
<path d="M106.875 112.754C103.666 112.754 100.761 111.113 99.1054 108.363C97.4499 105.614 97.3573 102.28 98.858 99.4433L106.412 85.1633C106.469 85.0556 106.581 84.9877 106.703 84.9866C106.814 84.9905 106.937 85.0514 106.996 85.1579L114.812 99.2964C116.381 102.135 116.334 105.498 114.687 108.292C113.039 111.086 110.118 112.754 106.875 112.754ZM106.712 86.0162L99.4445 99.7536C98.0537 102.383 98.1395 105.473 99.6739 108.021C101.208 110.569 103.9 112.09 106.875 112.09C109.881 112.09 112.588 110.544 114.115 107.955C115.642 105.365 115.685 102.249 114.231 99.6176L106.712 86.0162Z" fill="#363E44"/>
<path d="M232.634 102.993C227.339 102.993 223.046 98.7007 223.046 93.4055V85.7837H242.222V93.4055C242.222 98.7007 237.929 102.993 232.634 102.993Z" fill="#363E44"/>
<path d="M258.577 48.172C258.577 33.503 246.402 21.6776 231.606 22.249C218.417 22.7584 207.574 33.3204 206.744 46.4934C206.102 56.6883 211.355 65.7114 219.419 70.4954L219.884 78.617C220.271 85.3757 225.864 90.6584 232.634 90.6584C239.404 90.6584 244.998 85.3757 245.385 78.617L245.849 70.4954C253.467 65.9758 258.577 57.6724 258.577 48.172Z" fill="#EFBC73"/>
<path d="M232.497 94.2064C226.833 94.2064 222.751 91.5234 222.688 91.4816C222.536 91.3792 222.496 91.1732 222.599 91.0211C222.701 90.8688 222.907 90.8289 223.059 90.9308C223.151 90.9927 232.369 97.0332 242.213 90.5282C242.365 90.427 242.571 90.469 242.673 90.6221C242.774 90.775 242.732 90.981 242.579 91.0819C239.014 93.4371 235.529 94.2064 232.497 94.2064Z" fill="#F2E6DC"/>
<path d="M232.497 98.219C226.833 98.219 222.751 95.536 222.688 95.4942C222.536 95.3918 222.496 95.1857 222.599 95.0337C222.701 94.8814 222.907 94.8415 223.059 94.9434C223.151 95.0053 232.369 101.046 242.213 94.5408C242.365 94.4396 242.571 94.4816 242.673 94.6347C242.774 94.7876 242.732 94.9935 242.579 95.0945C239.014 97.4497 235.529 98.219 232.497 98.219Z" fill="#F2E6DC"/>
<path d="M225.531 53.2071L233.41 33.235H244.832L234.676 48.9928H244.832L225.531 68.965L231.747 53.2071H225.531Z" fill="white"/>
<path d="M98.8443 198.706C98.8443 198.706 106.914 220.791 123.627 220.791C135.603 220.791 141.694 212.75 142.974 201.238C144.364 188.727 125.304 168.615 102.066 149.847C102.066 149.847 93.9519 180.448 98.8443 198.706Z" fill="#EFBC73"/>
<path d="M42.5636 197.401C42.5636 197.401 30.8895 227.193 13.7664 215.923C-16.828 195.786 15.4599 165.59 38.8151 153.742C69.2093 138.322 91.1979 146.641 102.066 149.847L100.12 214.099C99.9366 220.156 94.9734 224.945 88.9136 224.945H49.1345C41.5527 224.945 36.1571 217.602 38.4463 210.374L42.5636 197.401Z" fill="#EFBC73"/>
<path d="M37.8147 178.112C37.7872 178.112 37.7592 178.109 37.731 178.102C37.5537 178.056 37.4471 177.874 37.4934 177.697L39.4944 169.989C39.5403 169.812 39.7212 169.705 39.899 169.751C40.0763 169.797 40.1828 169.979 40.1366 170.156L38.1358 177.864C38.0969 178.013 37.9624 178.112 37.8147 178.112Z" fill="#363E44"/>
<path d="M100.31 208.181C100.307 208.181 100.303 208.181 100.3 208.181C100.117 208.175 99.9727 208.023 99.9782 207.839L100.255 198.696C100.261 198.513 100.414 198.37 100.597 198.375C100.78 198.38 100.924 198.533 100.919 198.716L100.642 207.859C100.636 208.039 100.489 208.181 100.31 208.181Z" fill="#363E44"/>
<path d="M20.6644 185.563C20.6644 185.563 41.5527 176.824 52.7387 172.479C72.1206 164.952 83.2819 167.035 83.2953 169.821C83.3099 172.846 77.4959 171.121 74.724 172.001C75.1739 172.223 76.3589 173.133 76.4179 174.628C76.5054 176.84 74.8874 177.532 74.7654 177.655C74.9236 177.717 76.6109 178.436 76.9023 179.906C77.2304 181.562 76.5517 182.836 75.5444 183.604C75.9325 183.771 77.3063 184.543 77.5477 185.965C77.7959 187.428 77.069 189.148 75.693 189.609C73.1686 190.453 65.6224 192.81 62.0796 194.438C55.108 197.642 31.7694 212.599 20.5563 214.364C12.1499 214.699 8.24184 202.964 11.7489 193.71C13.9559 187.887 20.6644 185.563 20.6644 185.563Z" fill="#84524D"/>
<path d="M72.5093 189.395C72.3496 189.395 72.2089 189.279 72.1821 189.117L71.7929 186.748C71.7632 186.567 71.8858 186.397 72.0665 186.367C72.2458 186.336 72.418 186.46 72.4478 186.641L72.837 189.009C72.8667 189.19 72.7442 189.361 72.5634 189.39C72.5452 189.394 72.5273 189.395 72.5093 189.395Z" fill="#363E44"/>
<path d="M71.4735 183.701C71.3098 183.701 71.1673 183.58 71.145 183.413L70.7838 180.721C70.7595 180.54 70.887 180.373 71.0687 180.348C71.2499 180.325 71.4175 180.451 71.4417 180.633L71.8029 183.325C71.8272 183.506 71.6997 183.673 71.518 183.698C71.5031 183.7 71.4882 183.701 71.4735 183.701Z" fill="#363E44"/>
<path d="M70.7666 177.639C70.6071 177.639 70.4663 177.524 70.4394 177.362C70.3664 176.919 70.3033 176.519 70.2403 176.119C70.1772 175.721 70.1144 175.322 70.0414 174.881C70.0116 174.7 70.134 174.529 70.3148 174.499C70.4955 174.468 70.6664 174.592 70.6963 174.773C70.7695 175.215 70.8326 175.616 70.8958 176.016C70.9585 176.414 71.0213 176.812 71.0943 177.253C71.1241 177.434 71.0017 177.605 70.821 177.635C70.8028 177.638 70.7844 177.639 70.7666 177.639Z" fill="#363E44"/>
<path d="M69.7399 172.719C69.5896 172.719 69.4532 172.616 69.4174 172.463L68.8708 170.149C68.8287 169.97 68.9392 169.791 69.1175 169.749C69.2961 169.707 69.4747 169.818 69.5169 169.996L70.0634 172.311C70.1055 172.489 69.9951 172.668 69.8169 172.71C69.7908 172.716 69.7652 172.719 69.7399 172.719Z" fill="#363E44"/>
<path d="M103.42 181.11L113.145 205.674C115.777 212.322 123.366 215.5 129.95 212.71C137.096 209.683 139.894 201.021 135.869 194.385L122.366 172.118L103.42 181.11Z" fill="#84524D"/>
<path d="M80.8668 191.364C80.8299 191.364 80.7923 191.358 80.7554 191.345C80.5826 191.283 80.4926 191.094 80.5542 190.921L93.8358 153.63C93.8828 153.498 94.008 153.41 94.1485 153.41C94.1494 153.41 94.1504 153.41 94.1513 153.41L123.269 153.664C123.452 153.666 123.599 153.816 123.598 153.999C123.596 154.182 123.439 154.33 123.263 154.328L94.3818 154.076L81.1793 191.144C81.1311 191.279 81.0032 191.364 80.8668 191.364Z" fill="#F7F1EB"/>
<path d="M112.172 193.418H83.0549L96.3366 156.248H125.454L112.172 193.418Z" fill="#363E44"/>
<path d="M116.013 180.418C118.582 181.88 118.892 183.591 118.079 185.021C117.265 186.45 115.635 187.057 113.067 185.595C110.499 184.134 107.965 181.157 108.779 179.728C109.593 178.298 113.445 178.957 116.013 180.418Z" fill="#84524D"/>
<path d="M118.264 175.155C121.241 176.849 121.601 178.832 120.658 180.489C119.715 182.146 117.826 182.849 114.849 181.155C111.873 179.461 108.936 176.011 109.879 174.354C110.823 172.697 115.288 173.461 118.264 175.155Z" fill="#84524D"/>
<path d="M120.732 172.127C123.3 173.589 124.931 172.982 125.744 171.553C126.558 170.123 126.247 168.412 123.679 166.95C121.111 165.489 117.258 164.83 116.444 166.26C115.631 167.689 118.164 170.666 120.732 172.127Z" fill="#84524D"/>
<path d="M117.356 176.75C120.333 178.445 122.222 177.741 123.165 176.085C124.108 174.428 123.748 172.445 120.771 170.75C117.795 169.056 113.329 168.293 112.386 169.95C111.443 171.607 114.38 175.056 117.356 176.75Z" fill="#84524D"/>
<path d="M115.71 186.768C115.602 186.768 115.492 186.763 115.38 186.753C115.198 186.736 115.063 186.575 115.08 186.392C115.096 186.21 115.258 186.075 115.44 186.091C116.481 186.186 117.271 185.77 117.79 184.857C118.288 183.982 118.265 183.124 117.722 182.308C117.655 182.207 117.648 182.077 117.704 181.97C117.76 181.863 117.87 181.795 117.991 181.792C119.028 181.769 119.828 181.276 120.37 180.325C120.85 179.48 120.915 178.639 120.563 177.824C120.521 177.729 120.527 177.619 120.579 177.529C120.63 177.438 120.722 177.377 120.825 177.363C121.706 177.251 122.396 176.765 122.876 175.921C122.967 175.761 123.169 175.705 123.329 175.796C123.488 175.887 123.544 176.089 123.453 176.249C122.946 177.14 122.211 177.72 121.312 177.946C121.577 178.834 121.454 179.762 120.946 180.653C120.385 181.639 119.559 182.238 118.537 182.407C118.953 183.303 118.897 184.254 118.367 185.185C117.782 186.214 116.846 186.768 115.71 186.768Z" fill="#363E44"/>
<path d="M22.005 182.684C22.6002 182.414 11.865 204.649 27.3313 212.387C27.3313 212.387 22.0543 216.163 15.7024 214.37C9.35044 212.578 2.72564 191.417 22.005 182.684Z" fill="#F2E6DC"/>
<path d="M110.829 204.862C110.829 204.862 131.431 212.804 135.603 191.032L139.174 199.533C139.174 199.533 141.983 209.809 132.032 214.371C122.081 218.932 114.073 212.324 110.829 204.862Z" fill="#F2E6DC"/>
<path d="M76.0306 136.17C83.7382 135.221 89.2172 128.204 88.2682 120.496C87.3192 112.789 80.3016 107.31 72.594 108.259C64.8864 109.208 59.4074 116.225 60.3564 123.933C61.3054 131.641 68.3229 137.119 76.0306 136.17Z" fill="#363E44"/>
<path d="M84.0228 129.227C82.2435 128.244 79.1949 125.618 78.2118 127.398L66.6763 145.845C65.6933 147.624 71.5942 147.005 73.3735 147.988C75.1528 148.971 77.3922 148.326 78.3753 146.546L85.4646 134.228C86.4476 132.449 85.8021 130.21 84.0228 129.227Z" fill="#84524D"/>
<path d="M82.6914 147.27C84.2857 153.109 79.6967 161.943 79.6967 161.943C79.6967 161.943 62.7973 153.742 62.7973 147.27C62.7973 145.616 67.2507 144.275 72.7443 144.275C78.238 144.275 82.2558 145.675 82.6914 147.27Z" fill="#84524D"/>
<path d="M93.3337 134.302C91.7376 137.289 82.3821 136.005 82.3821 136.005L74.2235 129.642C72.0977 125.379 73.8308 120.199 78.0944 118.074C82.358 115.948 87.5375 117.681 89.6633 121.945C89.6633 121.945 94.9594 131.26 93.3337 134.302Z" fill="#84524D"/>
<path d="M89.7884 124.417C89.7884 124.417 93.0849 125.606 93.2683 126.262C93.4873 127.045 91.2927 128.684 91.2927 128.684C91.2927 128.684 89.8486 124.393 89.7884 124.417Z" fill="#84524D"/>
<path d="M82.6568 127.56C82.6568 127.56 83.6027 126.221 85.1607 125.444C85.4922 125.278 86.1894 128.243 85.7998 128.25C84.0871 128.279 82.6568 127.56 82.6568 127.56Z" fill="white"/>
<mask id="mask0_11_816" style="mask-type:luminance" maskUnits="userSpaceOnUse" x="82" y="124" width="9" height="5">
<path d="M82.6568 127.56C82.6568 127.56 84.0479 125.59 86.2351 125.043C88.4221 124.495 90.577 125.579 90.577 125.579C90.577 125.579 89.1859 127.549 86.9987 128.096C84.8116 128.643 82.6568 127.56 82.6568 127.56Z" fill="white"/>
</mask>
<g mask="url(#mask0_11_816)">
<path d="M85.1926 125.342C85.7093 123.798 87.3799 122.965 88.9241 123.482C90.4683 123.999 91.3013 125.669 90.7847 127.214C90.2679 128.758 88.5973 129.591 87.0532 129.074C85.5088 128.557 84.6759 126.887 85.1926 125.342Z" fill="#363E44"/>
</g>
<path d="M89.509 131.432C89.4518 131.432 89.3943 131.429 89.3365 131.423C88.7582 131.357 88.2569 130.959 88.0591 130.408C87.9972 130.235 88.0869 130.045 88.2594 129.984C88.4316 129.922 88.6219 130.011 88.684 130.184C88.7968 130.499 89.0825 130.726 89.4115 130.763C89.7521 130.802 90.0887 130.635 90.2663 130.336C90.3601 130.179 90.5634 130.127 90.7213 130.221C90.8788 130.315 90.9304 130.518 90.8368 130.676C90.5557 131.148 90.0476 131.432 89.509 131.432Z" fill="#363E44"/>
<path d="M68.076 131.211C68.076 131.211 80.1981 131.746 87.8632 119.624C95.5286 107.502 74.4935 108.215 65.7584 112.315C60.1638 114.941 68.076 131.211 68.076 131.211Z" fill="#363E44"/>
<path d="M71.0852 141.089C70.6961 141.089 70.4416 141.05 70.4119 141.045C70.2313 141.015 70.1089 140.845 70.1381 140.664C70.1673 140.484 70.338 140.361 70.5183 140.39C70.5378 140.393 72.4248 140.678 73.8721 139.514C74.9019 138.687 75.4795 137.326 75.5886 135.47C75.7511 132.705 73.8003 131.174 72.3757 130.056C71.4997 129.368 70.8668 128.871 70.9943 128.248C71.1138 127.665 71.8807 127.246 73.7301 126.751C80.3102 124.99 84.1399 117.239 84.1778 117.161C84.2579 116.997 84.4557 116.928 84.6214 117.008C84.7862 117.088 84.855 117.286 84.7752 117.451C84.6152 117.781 80.7785 125.552 73.9017 127.392C71.94 127.917 71.6698 128.259 71.6447 128.382C71.5994 128.603 72.2573 129.119 72.7856 129.534C74.2384 130.674 76.4342 132.398 76.251 135.509C76.1301 137.564 75.4676 139.088 74.2813 140.037C73.1622 140.933 71.8586 141.089 71.0852 141.089Z" fill="#40484C"/>
<path d="M78.1626 115.493C78.1626 115.493 73.051 90.9496 65.4153 93.4296C57.7797 95.9092 72.6118 117.907 78.1626 115.493Z" fill="#363E44"/>
<path d="M73.155 117.744C73.155 117.744 62.2009 88.8476 52.9133 93.3399C43.6258 97.8321 66.5136 121.754 73.155 117.744Z" fill="#363E44"/>
<path d="M71.0059 117.703C71.0059 117.703 46.3836 91.4312 38.8753 100.182C31.3669 108.933 66.0047 124.815 71.0059 117.703Z" fill="#363E44"/>
<path d="M66.599 121.199C66.599 121.199 44.5745 104.078 39.5282 111.905C34.4819 119.733 63.3654 127.412 66.599 121.199Z" fill="#363E44"/>
<path d="M52.644 122.606C47.5319 122.606 42.6537 121.645 40.5177 119.579C39.4101 118.508 39.0578 117.224 39.4715 115.764C39.842 114.456 40.7029 113.454 42.0301 112.788C49.1524 109.212 67.7269 116.219 68.5142 116.519L68.7728 116.618L68.7223 116.89C68.4025 118.615 66.4877 120.085 63.1853 121.141C60.1897 122.099 56.3549 122.606 52.644 122.606ZM47.4684 112.441C45.4507 112.441 43.6618 112.712 42.3279 113.381C41.1577 113.969 40.4322 114.807 40.1103 115.945C39.7683 117.152 40.0609 118.214 40.9791 119.102C44.5125 122.519 56.0313 122.732 62.9832 120.509C65.808 119.606 67.5725 118.381 68.0021 117.037C66.1265 116.348 55.1417 112.441 47.4684 112.441Z" fill="#363E44"/>
<path d="M68.8075 116.239C67.3266 116.239 65.4931 115.346 63.4233 113.601C57.7055 108.783 51.6267 98.5973 52.6835 93.5785C53.0011 92.0705 53.9004 91.0894 55.3568 90.6624C56.6615 90.2801 57.9671 90.4759 59.238 91.2451C66.056 95.3723 70.0075 114.827 70.1723 115.653L70.2266 115.925L69.9695 116.027C69.6116 116.169 69.2236 116.239 68.8075 116.239ZM56.6602 91.1341C56.2906 91.1341 55.9193 91.1894 55.5435 91.2995C54.3399 91.6524 53.5962 92.4652 53.3328 93.7154C52.32 98.5249 58.2698 108.391 63.8508 113.094C66.1187 115.005 68.0954 115.847 69.4612 115.496C68.937 113.027 65.0274 95.5255 58.894 91.813C58.145 91.3594 57.4066 91.1341 56.6602 91.1341Z" fill="#363E44"/>
<path d="M75.5545 112.478C75.5545 112.478 71.643 100.99 77.3648 101.398C83.0867 101.805 75.5545 112.478 75.5545 112.478Z" fill="#363E44"/>
<path d="M62.7511 121.132C62.7511 121.132 47.1535 117.658 48.9056 125.748C50.6575 133.839 62.7511 121.132 62.7511 121.132Z" fill="#363E44"/>
<path d="M71.7176 254.323L81.0294 274.725H116.766L93.6951 210.184L46.6467 210.237C34.8445 228.425 30.9073 250.499 32.0418 274.725H71.0767L71.7176 254.323Z" fill="#8B865C"/>
<path d="M71.7178 254.67C71.716 254.67 71.7143 254.67 71.7128 254.67C71.5295 254.667 71.3832 254.517 71.3859 254.333L71.5027 246.269C71.5045 246.143 71.5778 246.029 71.6913 245.974L77.0677 243.403C77.2322 243.324 77.4311 243.394 77.5104 243.559C77.5894 243.725 77.5194 243.923 77.3541 244.002L72.1633 246.484L72.0495 254.343C72.047 254.525 71.8989 254.67 71.7178 254.67Z" fill="#363E44"/>
<path d="M93.8172 203.374H46.3601V211.338H93.8172V203.374Z" fill="#8B865C"/>
<path d="M78.8831 210.675H49.3469C49.1635 210.675 49.015 210.526 49.015 210.343C49.015 210.16 49.1635 210.011 49.3469 210.011H78.8831C79.0665 210.011 79.215 210.16 79.215 210.343C79.215 210.526 79.0665 210.675 78.8831 210.675Z" fill="#363E44"/>
</svg>
