<svg width="273" height="273" viewBox="0 0 273 273" fill="none" xmlns="http://www.w3.org/2000/svg">
<path d="M136.5 272.649C211.79 272.649 272.825 211.615 272.825 136.325C272.825 61.0346 211.79 0 136.5 0C61.21 0 0.175446 61.0346 0.175446 136.325C0.175446 211.615 61.21 272.649 136.5 272.649Z" fill="#F2E6DC"/>
<path d="M232.038 64.033H226.743C226.269 61.4523 225.593 58.9426 224.734 56.5194L229.316 53.8741L220.357 38.3572L215.765 41.0087C214.08 39.0357 212.242 37.198 210.269 35.5128L212.92 30.9206L197.403 21.962L194.758 26.5438C192.335 25.6844 189.825 25.0083 187.244 24.5341V19.2399H169.327V24.5341C166.746 25.0082 164.237 25.6843 161.814 26.5438L159.168 21.962L143.651 30.9206L146.303 35.5128C144.33 37.198 142.492 39.0359 140.807 41.0087L136.214 38.3572L127.256 53.8743L131.838 56.5196C130.978 58.9427 130.302 61.4524 129.828 64.0332H124.534V81.9504H129.828C130.302 84.5312 130.978 87.0408 131.838 89.4641L127.256 92.1094L136.215 107.626L140.807 104.975C142.492 106.948 144.33 108.785 146.303 110.471L143.651 115.063L159.168 124.022L161.814 119.44C164.237 120.299 166.746 120.975 169.327 121.449V126.743H187.244V121.449C189.825 120.975 192.335 120.299 194.758 119.44L197.403 124.022L212.92 115.063L210.269 110.471C212.241 108.785 214.079 106.947 215.765 104.975L220.357 107.626L229.315 92.1092L224.734 89.4639C225.593 87.0408 226.269 84.531 226.743 81.9503H232.037L232.038 64.033ZM207.962 73.9633C207.466 89.5095 194.804 102.171 179.258 102.668C162.091 103.216 148.062 89.1866 148.61 72.02C149.106 56.4738 161.768 43.8119 177.314 43.3156C194.481 42.7676 208.51 56.7967 207.962 73.9633Z" fill="white"/>
<path d="M178.286 112.514C156.493 112.514 138.763 94.7846 138.763 72.9918C138.763 63.4697 142.197 54.2712 148.433 47.0905C154.606 39.9813 163.106 35.3 172.368 33.9094C172.547 33.882 172.714 34.0062 172.741 34.1854C172.768 34.3648 172.644 34.532 172.465 34.559C153.627 37.388 139.42 53.9105 139.42 72.9918C139.42 94.4223 156.855 111.857 178.286 111.857C195.993 111.857 211.463 99.9025 215.907 82.7854C215.953 82.6097 216.132 82.5042 216.307 82.5501C216.483 82.5957 216.588 82.7749 216.543 82.9506C212.024 100.357 196.292 112.514 178.286 112.514Z" fill="#F2E6DC"/>
<path d="M81.3691 150.385C121.572 150.385 154.163 117.795 154.163 77.5916C154.163 37.3888 121.572 4.79791 81.3691 4.79791C41.1662 4.79791 8.57538 37.3888 8.57538 77.5916C8.57538 117.795 41.1662 150.385 81.3691 150.385Z" fill="#D87355"/>
<mask id="mask0_11_1224" style="mask-type:luminance" maskUnits="userSpaceOnUse" x="1" y="1" width="154" height="150">
<path d="M81.3691 4.79785C73.8056 4.79785 66.5114 5.95222 59.6532 8.09319C56.8008 4.35089 52.2985 1.93414 47.2299 1.93414C38.6069 1.93414 31.6166 8.92454 31.6166 17.5477C31.6166 19.6221 32.0247 21.6003 32.7592 23.4113C20.7327 34.2085 12.3238 48.9503 9.5638 65.6023C3.71347 67.6366 1.4837 73.1957 1.4837 79.739C1.4837 86.6157 4.15209 92.4051 10.4704 94.1584C11.2256 97.4036 12.2015 100.564 13.3748 103.627C10.4093 106.599 8.57541 110.7 8.57541 115.231C8.57541 124.304 15.9311 131.66 25.005 131.66C27.2297 131.66 29.3499 131.216 31.2848 130.414C44.3342 142.791 61.9643 150.385 81.369 150.385C121.572 150.385 154.163 117.795 154.163 77.5919C154.163 37.3887 121.572 4.79785 81.3691 4.79785Z" fill="white"/>
</mask>
<g mask="url(#mask0_11_1224)">
<path d="M89.5144 46.7943C85.8648 37.318 74.8928 28.6082 74.8928 28.6082C74.8928 28.6082 53.9037 24.1071 52.0819 38.5524C50.2601 52.9979 37.7689 60.911 19.0201 63.4416C0.271572 65.972 2.43653 86.0069 2.43653 86.0069L4.28995 88.0197L6.28922 79.0842L6.3302 90.2357L8.93571 93.0654L11.7634 83.4343C11.7634 83.4343 12.7097 92.4384 13.0061 97.486L21.1078 106.284L88.9956 69.3475C88.9958 69.3472 93.9105 58.2079 89.5144 46.7943Z" fill="#363E44"/>
<path d="M9.27548 84.7005C9.26251 84.7005 9.24955 84.6997 9.23644 84.6982C9.05617 84.6769 8.92729 84.5137 8.94874 84.3334C9.62113 78.6466 14.3946 74.4927 18.6373 72.5016C22.823 70.5372 27.4777 69.8 31.979 69.0869C32.6092 68.9871 33.2387 68.8874 33.8663 68.7846C38.6198 68.0053 44.0537 66.9129 48.3802 63.7966C52.0897 61.1245 55.4669 55.8703 54.1157 50.6485C54.0702 50.4729 54.1759 50.2938 54.3515 50.2482C54.5288 50.2038 54.7066 50.3087 54.7519 50.4841C56.1804 56.0045 52.6493 61.5313 48.7643 64.3299C44.3222 67.5292 38.8 68.6416 33.9727 69.433C33.3441 69.5361 32.7135 69.636 32.0819 69.7361C27.6258 70.442 23.018 71.1717 18.9165 73.0965C14.8335 75.0128 10.2421 78.9912 9.60132 84.4107C9.5815 84.5776 9.43966 84.7005 9.27548 84.7005Z" fill="#40484C"/>
<path d="M18.3377 86.3893C18.316 86.3893 18.2938 86.3872 18.2716 86.3826C18.0937 86.3463 17.9791 86.1728 18.0156 85.995C19.0018 81.1748 23.4884 77.2265 30.0174 75.4335C32.4016 74.7787 34.884 74.3978 37.2846 74.0293C40.23 73.5771 43.2757 73.1096 46.1231 72.1331C51.0674 70.4372 56.0922 66.3042 56.1716 60.8934C56.1743 60.7136 56.3207 60.5698 56.5 60.5698C56.5018 60.5698 56.5034 60.5698 56.5049 60.5698C56.6864 60.5725 56.8312 60.7218 56.8285 60.9031C56.7443 66.6329 51.498 70.9843 46.336 72.7546C43.4332 73.7501 40.3581 74.2222 37.3841 74.6787C35.0021 75.0445 32.5389 75.4225 30.1911 76.0673C25.3384 77.3999 19.7607 80.7424 18.6591 86.1267C18.6274 86.2821 18.4906 86.3893 18.3377 86.3893Z" fill="#40484C"/>
<path d="M59.0058 115.529L34.5335 126.445C26.8499 129.872 17.816 127.077 13.411 119.909C9.22899 113.104 10.4224 104.292 16.2711 98.8518C22.3814 93.169 29.825 86.4709 34.1083 83.4339C42.2741 77.6441 59.0058 115.529 59.0058 115.529Z" fill="#EFBC73"/>
<path d="M157.1 65.9117C157.1 65.9117 151.209 52.6054 113.856 53.4895L112.467 69.4746L157.1 65.9117Z" fill="#EFBC73"/>
<path d="M113.856 53.4895C113.856 53.4895 62.7795 59.8287 33.0819 84.2606L56.193 117.642L53.8265 163.151C53.8265 163.151 140.143 136.298 140.127 135.472C140.111 134.647 120.906 88.2182 120.906 88.2182L113.856 53.4895Z" fill="#EFBC73"/>
<path d="M57.5749 70.9134C57.5749 70.9134 77.1435 113.416 85.0187 153.231L126.276 140.267L99.8607 56.8713C99.8607 56.8713 74.2234 59.495 57.5749 70.9134Z" fill="white"/>
<path d="M77.7653 28.9053C82.0742 36.3684 80.7886 46.3078 73.909 50.2796C67.0296 54.2515 55.7715 50.4295 51.4626 42.9664C47.1537 35.5033 49.2376 26.2333 56.1171 22.2614C62.9967 18.2896 73.4564 21.442 77.7653 28.9053Z" fill="#363E44"/>
<path d="M67.0308 48.8929L72.4964 67.5773L83.2588 64.6871L79.0151 49.9101L67.0308 48.8929Z" fill="#9E6C5A"/>
<path d="M64.4235 68.0735C64.4235 68.0735 75.4117 59.6817 88.9956 59.5017L87.0538 81.8729L64.4235 68.0735Z" fill="#9E6C5A"/>
<path d="M63.9904 27.4217C64.4972 27.1124 69.3958 24.2235 74.1581 26.2227C77.7018 27.7102 79.5904 30.9085 81.9468 36.7517C84.7218 43.6327 85.4193 48.1338 84.1388 50.3779C82.1156 53.9235 70.7849 53.676 64.5524 49.5136C60.0536 46.5091 57.7145 40.9654 58.3069 35.5498C58.8975 30.1492 63.6668 27.6191 63.9904 27.4217Z" fill="#9E6C5A"/>
<path d="M80.379 30.466C80.3946 30.5128 80.4395 30.5355 80.4551 30.5824C80.4559 30.5843 80.4557 30.5861 80.4557 30.5861C80.8686 31.1462 81.3051 31.7336 81.8123 32.2067C82.0369 32.4161 82.2792 32.4801 82.5133 32.6533C82.6849 32.7806 82.8488 32.903 83.023 33.0213C83.7901 30.8531 83.4462 28.7051 83.4462 28.7051C83.4462 28.7051 81.8376 29.233 80.379 30.466Z" fill="white"/>
<mask id="mask1_11_1224" style="mask-type:luminance" maskUnits="userSpaceOnUse" x="77" y="28" width="7" height="10">
<path d="M83.4462 28.7051C83.4462 28.7051 83.947 31.8239 82.3997 34.3385C80.8523 36.8533 77.8425 37.8117 77.8425 37.8117C77.8425 37.8117 77.3416 34.6929 78.889 32.1783C80.4364 29.6637 83.4462 28.7051 83.4462 28.7051Z" fill="white"/>
</mask>
<g mask="url(#mask1_11_1224)">
<path d="M82.809 32.4998C83.7388 34.4191 82.9368 36.7287 81.0177 37.6585C79.0984 38.5884 76.7888 37.7864 75.859 35.8672C74.9292 33.9481 75.7312 31.6385 77.6503 30.7085C79.5694 29.7785 81.879 30.5805 82.809 32.4998Z" fill="#363E44"/>
</g>
<path d="M70.7179 40.3034C71.0623 41.0475 71.4603 41.5458 72.1438 41.9327C73.8484 40.977 74.8928 39.6194 74.8928 39.6194C74.8928 39.6194 72.6343 38.3987 70.1002 38.5686C70.1537 39.1702 70.4734 39.7754 70.7179 40.3034Z" fill="white"/>
<mask id="mask2_11_1224" style="mask-type:luminance" maskUnits="userSpaceOnUse" x="64" y="38" width="11" height="5">
<path d="M64.4234 41.7932C64.4234 41.7932 66.3481 39.2886 69.239 38.6884C72.13 38.0882 74.8927 39.6195 74.8927 39.6195C74.8927 39.6195 72.9681 42.1241 70.077 42.7244C67.186 43.3247 64.4234 41.7932 64.4234 41.7932Z" fill="white"/>
</mask>
<g mask="url(#mask2_11_1224)">
<path d="M64.6394 40.5858C65.3973 38.5923 67.6275 37.5907 69.621 38.3484C71.6145 39.1062 72.6161 41.3365 71.8584 43.33C71.1006 45.3235 68.8702 46.3251 66.8768 45.5674C64.8833 44.8095 63.8817 42.5793 64.6394 40.5858Z" fill="#363E44"/>
</g>
<path d="M79.9985 41.4311C79.9836 41.4311 79.9686 41.4302 79.9534 41.4279C79.7735 41.4032 79.6478 41.2375 79.6725 41.0579C79.7175 40.7293 79.6747 40.4738 79.5453 40.2986C79.4213 40.1303 79.244 40.0718 78.9153 39.9746C78.665 39.9007 78.3534 39.8086 78.0101 39.6168C77.5719 39.3715 77.1863 39.0218 76.8636 38.5772C76.7571 38.4303 76.7899 38.225 76.9366 38.1183C77.0835 38.0119 77.289 38.0446 77.3955 38.1913C77.6618 38.5584 77.9767 38.8451 78.331 39.0435C78.6098 39.1994 78.8598 39.2733 79.1016 39.3446C79.4678 39.4528 79.8136 39.5549 80.0742 39.9089C80.3087 40.2265 80.3926 40.6431 80.3234 41.1471C80.3008 41.3117 80.16 41.4311 79.9985 41.4311Z" fill="#363E44"/>
<path d="M79.4893 46.0466C79.2393 47.0549 78.2193 47.6694 77.2111 47.4194C76.2029 47.1694 75.5884 46.1494 75.8384 45.1412C76.0884 44.133 76.6557 45.3439 77.6639 45.594C78.6721 45.844 79.7395 45.0386 79.4893 46.0466Z" fill="#363E44"/>
<path d="M77.0786 53.1505C72.9914 53.1505 69.4318 52.0909 69.266 52.0409C69.0923 51.9884 68.9941 51.805 69.0465 51.6313C69.0988 51.4579 69.2819 51.3598 69.4558 51.4117C69.4999 51.425 73.9165 52.7392 78.4359 52.4512C78.6143 52.4387 78.7731 52.5769 78.7846 52.7582C78.7962 52.9393 78.6587 53.0954 78.4777 53.1069C78.0076 53.137 77.5395 53.1505 77.0786 53.1505Z" fill="#363E44"/>
<path d="M59.0057 24.8828C59.0057 24.8828 60.8499 17.326 54.7118 10.7517C48.5738 4.1773 42.6965 4.39795 37.6395 9.86151C32.5824 15.3251 34.034 27.0508 51.9639 32.2993L59.0057 24.8828Z" fill="#363E44"/>
<path d="M47.7032 25.5927C45.4762 25.5927 43.244 24.8978 41.4578 23.5673C38.6373 21.4666 37.0166 17.8457 37.3289 14.3424C37.345 14.1617 37.5048 14.0305 37.6852 14.0444C37.8658 14.0606 37.9993 14.2201 37.9832 14.4008C37.6906 17.6817 39.2085 21.0729 41.8501 23.0406C44.4918 25.008 48.1754 25.4912 51.2355 24.2719C51.4038 24.2042 51.5951 24.2869 51.6622 24.4554C51.7294 24.6238 51.6473 24.8151 51.4786 24.8821C50.2807 25.3596 48.9927 25.5927 47.7032 25.5927Z" fill="#40484C"/>
<path d="M46.9534 28.403C45.6754 28.403 44.3959 28.0663 43.3022 27.4072C43.1468 27.3134 43.0967 27.1116 43.1904 26.9563C43.2838 26.8008 43.4859 26.7509 43.6413 26.8446C45.3421 27.8696 47.5382 28.0342 49.3727 27.2746C49.5409 27.2051 49.7324 27.2848 49.802 27.4523C49.8714 27.6199 49.7918 27.8121 49.6242 27.8815C48.7806 28.2309 47.8675 28.403 46.9534 28.403Z" fill="#40484C"/>
<path d="M72.0331 25.6315C72.0331 25.6315 67.0308 24.637 62.589 30.3035C59.21 34.6141 58.281 39.3566 62.8355 43.7717L58.6472 46.1108C58.6472 46.1108 51.7409 34.7627 60.4539 28.0756C62.8852 26.2097 66.6131 25.0027 72.0331 25.6315Z" fill="#363E44"/>
<path d="M65.6672 48.3703C66.1619 45.9694 64.6167 43.6222 62.216 43.1275C59.8153 42.6329 57.468 44.1781 56.9734 46.5789C56.4787 48.9798 58.0239 51.327 60.4246 51.8217C62.8254 52.3163 65.1726 50.7711 65.6672 48.3703Z" fill="#9E6C5A"/>
<path d="M63.4343 48.2469C63.3345 48.2469 63.236 48.2016 63.1717 48.1161C63.1647 48.1067 62.4608 47.192 61.3613 47.042C60.6603 46.9468 59.9341 47.18 59.2051 47.7364C59.0605 47.8462 58.8546 47.8187 58.7446 47.6747C58.6345 47.5305 58.6622 47.3243 58.8063 47.2142C59.6822 46.5459 60.576 46.2701 61.458 46.3924C62.8308 46.5833 63.6623 47.6754 63.6971 47.7218C63.8057 47.867 63.7762 48.073 63.6308 48.1816C63.5718 48.2256 63.5027 48.2469 63.4343 48.2469Z" fill="#363E44"/>
</g>
<path d="M260.152 113.43H51.9425V256.198H260.152V113.43Z" fill="white"/>
<path d="M252.094 134.109H60.0005V184.64H252.094V134.109Z" fill="#F2E6DC"/>
<path d="M252.094 173.988H60.0005V245.477H252.094V173.988Z" fill="#EFBC73"/>
<path d="M249.168 62.6677H92.3114V126.743H249.168V62.6677Z" fill="#8B865C"/>
<path d="M215.442 113.154C225.631 113.154 233.891 104.894 233.891 94.7056C233.891 84.5169 225.631 76.2573 215.442 76.2573C205.254 76.2573 196.994 84.5169 196.994 94.7056C196.994 104.894 205.254 113.154 215.442 113.154Z" fill="#EFBC73"/>
<path d="M188.362 83.1271H112.375V91.8368H188.362V83.1271Z" fill="#F2E6DC"/>
<path d="M188.362 97.5743H112.375V106.284H188.362V97.5743Z" fill="#F2E6DC"/>
<path d="M101.043 88.9553C98.2051 87.9403 87.0838 81.8278 82.1937 85.1519C77.2686 88.4998 75.432 94.8202 75.6831 100.771C75.7004 100.787 75.7196 100.806 75.7367 100.823C76.4911 102.289 77.8443 104.367 80.2109 105.724C82.9087 107.272 84.3395 106.402 87.441 107.592C92.6755 109.601 93.7079 114.202 95.4873 113.319C96.7085 112.713 96.2231 110.006 95.138 107.652C94.0239 105.236 92.2862 104.142 92.5452 103.791C92.8291 103.406 94.4506 104.746 96.6199 106.227C97.6276 106.915 99.2318 110.508 101.022 109.926C102.45 109.462 101.717 105.309 99.2659 102.566C97.5317 100.626 95.0281 100.29 95.1836 99.8405C95.3003 99.5037 96.7873 99.7408 98.0078 100.327C100.022 101.294 101.702 104.953 103.34 104.386C104.945 103.83 104.241 100.214 102.146 97.5483C100.38 95.3008 97.5701 95.059 97.7602 94.4999C97.8939 94.1065 99.1743 93.9534 101.831 94.4433C104.048 94.8522 108.095 97.0772 108.87 94.8211C109.521 92.9237 105.325 90.4869 101.043 88.9553Z" fill="#9E6C5A"/>
<path d="M28.638 94.0935C22.4352 96.4961 18.3982 102.676 18.9541 109.305C19.3185 113.65 21.6621 118.038 28.5661 120.413C45.376 126.196 81.0895 100.701 81.0895 100.701L84.982 84.22C65.9382 84.2026 45.7115 87.4804 28.638 94.0935Z" fill="#9E6C5A"/>
<path d="M88.0761 160.689H27.6885C27.5071 160.689 27.36 160.542 27.36 160.361V153.102C27.36 152.92 27.5071 152.773 27.6885 152.773H96.7501C96.9316 152.773 97.0786 152.92 97.0786 153.102C97.0786 153.283 96.9316 153.43 96.7501 153.43H28.0172V160.032H88.0763C88.2578 160.032 88.4048 160.179 88.4048 160.361C88.4048 160.542 88.2575 160.689 88.0761 160.689Z" fill="#F0F8EC"/>
<path d="M142.848 235.224H64.5851C64.4036 235.224 64.2565 235.077 64.2565 234.895C64.2565 234.714 64.4036 234.567 64.5851 234.567H142.519V175.533C142.519 175.351 142.666 175.204 142.848 175.204C143.029 175.204 143.176 175.351 143.176 175.533V234.895C143.176 235.077 143.029 235.224 142.848 235.224Z" fill="white"/>
<path d="M48.729 235.224H27.6881C27.5066 235.224 27.3596 235.077 27.3596 234.895V153.102C27.3596 152.921 27.5066 152.773 27.6881 152.773H96.7498C96.9313 152.773 97.0783 152.921 97.0783 153.102C97.0783 153.283 96.9313 153.431 96.7498 153.431H28.0166V234.567H48.729C48.9105 234.567 49.0575 234.714 49.0575 234.896C49.0575 235.077 48.9105 235.224 48.729 235.224Z" fill="#F0F8EC"/>
<path d="M33.7242 155.573C35.0698 157.34 33.0723 159.337 31.3053 157.991C29.9594 156.224 31.957 154.227 33.7242 155.573Z" fill="white"/>
<path d="M39.0583 155.572C40.4041 157.34 38.4066 159.337 36.6396 157.991C35.2936 156.224 37.291 154.227 39.0583 155.572Z" fill="white"/>
<path d="M44.3925 155.573C45.7381 157.34 43.7406 159.337 41.9736 157.991C40.6275 156.224 42.6255 154.227 44.3925 155.573Z" fill="white"/>
<path d="M136.076 165.861H34.4602V228.424H136.076V165.861Z" fill="white"/>
<path d="M125.354 202.527H94.5963C94.4149 202.527 94.2678 202.38 94.2678 202.199C94.2678 202.017 94.4149 201.87 94.5963 201.87H125.354C125.535 201.87 125.682 202.017 125.682 202.199C125.682 202.38 125.535 202.527 125.354 202.527Z" fill="#F0F8EC"/>
<path d="M88.8243 202.527H77.8321C77.6506 202.527 77.5035 202.38 77.5035 202.199C77.5035 202.017 77.6506 201.87 77.8321 201.87H88.8243C89.0058 201.87 89.1528 202.017 89.1528 202.199C89.1528 202.38 89.0058 202.527 88.8243 202.527Z" fill="#F0F8EC"/>
<path d="M125.354 208.796H113.035C112.853 208.796 112.706 208.649 112.706 208.467C112.706 208.286 112.853 208.139 113.035 208.139H125.354C125.535 208.139 125.682 208.286 125.682 208.467C125.682 208.649 125.535 208.796 125.354 208.796Z" fill="#F0F8EC"/>
<path d="M107.438 208.796H77.8323C77.6508 208.796 77.5038 208.649 77.5038 208.467C77.5038 208.286 77.6508 208.139 77.8323 208.139H107.438C107.619 208.139 107.766 208.286 107.766 208.467C107.766 208.649 107.619 208.796 107.438 208.796Z" fill="#F0F8EC"/>
<path d="M125.354 215.065H99.6752C99.4937 215.065 99.3467 214.918 99.3467 214.736C99.3467 214.555 99.4937 214.408 99.6752 214.408H125.354C125.535 214.408 125.682 214.555 125.682 214.736C125.682 214.918 125.535 215.065 125.354 215.065Z" fill="#F0F8EC"/>
<path d="M87.7539 215.065H77.8321C77.6507 215.065 77.5036 214.918 77.5036 214.736C77.5036 214.555 77.6507 214.408 77.8321 214.408H87.7539C87.9354 214.408 88.0824 214.555 88.0824 214.736C88.0824 214.918 87.9354 215.065 87.7539 215.065Z" fill="#F0F8EC"/>
<path d="M125.354 221.333H114.247C114.066 221.333 113.919 221.186 113.919 221.005C113.919 220.824 114.066 220.676 114.247 220.676H125.354C125.535 220.676 125.682 220.824 125.682 221.005C125.682 221.186 125.535 221.333 125.354 221.333Z" fill="#F0F8EC"/>
<path d="M102.75 221.333H77.8323C77.6508 221.333 77.5038 221.186 77.5038 221.005C77.5038 220.824 77.6508 220.676 77.8323 220.676H102.75C102.932 220.676 103.079 220.824 103.079 221.005C103.079 221.186 102.932 221.333 102.75 221.333Z" fill="#F0F8EC"/>
<path d="M71.3341 173.242H42.9838V221.005H71.3341V173.242Z" fill="#F2E6DC"/>
<path d="M146.61 170.872H111.044C110.862 170.872 110.715 170.725 110.715 170.544V137.161C110.715 136.985 110.853 136.841 111.028 136.833C111.623 136.805 112.157 136.791 112.661 136.791C121.725 136.791 130.27 140.295 136.724 146.658C143.17 153.012 146.797 161.493 146.939 170.539C146.94 170.627 146.906 170.712 146.844 170.774C146.782 170.837 146.698 170.872 146.61 170.872ZM111.372 170.215H146.275C145.812 152.117 130.803 137.449 112.661 137.449C112.257 137.449 111.833 137.457 111.372 137.476V170.215Z" fill="#8B865C"/>
<path d="M108.698 195.666C96.8781 195.666 87.2618 186.049 87.2618 174.229C87.2618 162.76 96.2295 153.356 107.678 152.819C107.769 152.817 107.855 152.847 107.92 152.909C107.985 152.971 108.022 153.057 108.022 153.147V173.566H129.798C129.977 173.566 130.123 173.71 130.126 173.889L130.13 174.025C130.132 174.093 130.135 174.161 130.135 174.229C130.135 186.05 120.518 195.666 108.698 195.666ZM107.365 153.494C96.4328 154.185 87.9188 163.227 87.9188 174.229C87.9188 185.687 97.2404 195.009 108.698 195.009C120.156 195.009 129.478 185.687 129.478 174.229C129.478 174.227 129.478 174.225 129.478 174.223H107.693C107.512 174.223 107.365 174.076 107.365 173.894V153.494Z" fill="#8B865C"/>
<path d="M207.869 174.442C206.195 165.987 203.66 158.369 200.733 152.366L195.68 163.742L198.015 147.437C194.266 141.467 190.153 138.166 186.49 138.891C178.868 140.4 176.082 158.762 180.267 179.905C184.452 201.048 194.023 216.964 201.645 215.455C209.267 213.946 212.053 195.584 207.869 174.442Z" fill="white"/>
<path d="M230.114 190.954L220.582 193.339L230.738 186.974C232.894 170.667 229.724 157.235 222.988 155.92C215.554 154.469 206.592 168.328 202.971 186.876C199.35 205.424 202.442 221.636 209.876 223.087C217.311 224.538 226.273 210.679 229.893 192.132C229.97 191.738 230.043 191.346 230.114 190.954Z" fill="#F7F1EB"/>
<path d="M176.183 198.634L183.347 199.488L175.359 195.793C172.278 184.115 173.343 174.038 178.127 172.456C183.407 170.71 191.219 179.975 195.575 193.149C199.931 206.323 199.181 218.418 193.9 220.163C188.62 221.909 180.808 212.645 176.453 199.471C176.36 199.192 176.271 198.913 176.183 198.634Z" fill="#F7F1EB"/>
<path d="M202.714 263.066C202.71 263.066 202.706 263.066 202.702 263.066C202.521 263.06 202.379 262.908 202.385 262.727C203.686 225.239 199.56 195.734 195.87 177.584C191.874 157.928 187.519 147.004 187.476 146.896C187.408 146.728 187.489 146.536 187.657 146.468C187.825 146.401 188.017 146.482 188.085 146.65C188.129 146.759 192.506 157.739 196.514 177.453C200.211 195.638 204.345 225.198 203.042 262.75C203.036 262.927 202.89 263.066 202.714 263.066Z" fill="#F0F8EC"/>
<path d="M205.399 263.16C205.393 263.16 205.387 263.159 205.381 263.159C205.2 263.15 205.061 262.995 205.07 262.814C207.921 208.892 218.735 168.271 218.844 167.866C218.891 167.691 219.073 167.587 219.246 167.635C219.422 167.682 219.525 167.862 219.478 168.038C219.369 168.441 208.573 209 205.726 262.848C205.717 263.024 205.572 263.16 205.399 263.16Z" fill="#F0F8EC"/>
<path d="M199.337 262.525C199.335 262.525 199.333 262.525 199.331 262.525C199.15 262.522 199.005 262.372 199.008 262.191C199.404 238.952 194.86 218.417 190.979 205.283C186.69 190.769 182.204 181.662 181.711 181.053C181.59 180.944 181.565 180.76 181.66 180.622C181.763 180.472 181.968 180.434 182.116 180.537C183.081 181.201 200.427 217.374 199.666 262.202C199.662 262.381 199.516 262.525 199.337 262.525Z" fill="#F0F8EC"/>
<path d="M185.637 237.311V252.888C185.637 263.802 194.484 272.649 205.398 272.649C216.312 272.649 225.16 263.802 225.16 252.888V237.311H185.637Z" fill="#F0F8EC"/>
</svg>
