<svg width="275" height="275" viewBox="0 0 275 275" fill="none" xmlns="http://www.w3.org/2000/svg">
<path d="M137.329 274.517C213.135 274.517 274.588 213.064 274.588 137.258C274.588 61.4526 213.135 0 137.329 0C61.5236 0 0.0709381 61.4526 0.0709381 137.258C0.0709381 213.064 61.5236 274.517 137.329 274.517Z" fill="#F2E6DC"/>
<path opacity="0.5" d="M150.497 235.623C215.393 235.623 268.001 183.015 268.001 118.12C268.001 53.2242 215.393 0.615967 150.497 0.615967C85.6016 0.615967 32.9934 53.2242 32.9934 118.12C32.9934 183.015 85.6016 235.623 150.497 235.623Z" fill="white"/>
<path d="M44.3779 183.402C44.3566 183.402 44.3353 183.4 44.314 183.395L31.58 180.892C31.4941 180.875 31.4182 180.825 31.3694 180.752C31.3204 180.679 31.3025 180.59 31.3193 180.504L32.0061 177.011C30.4221 176.371 28.8727 175.613 27.3934 174.752L25.0538 177.431C24.9963 177.498 24.9145 177.538 24.8269 177.544C24.739 177.547 24.6532 177.521 24.5872 177.463L14.811 168.928C14.7448 168.871 14.7043 168.789 14.6983 168.702C14.6925 168.614 14.7216 168.528 14.7793 168.462L17.1249 165.775C16.0745 164.427 15.1136 162.996 14.2638 161.514L10.8888 162.668C10.8065 162.697 10.7154 162.691 10.6362 162.652C10.5575 162.613 10.4973 162.545 10.469 162.462L6.27007 150.183C6.21097 150.01 6.30337 149.822 6.47618 149.763L9.84239 148.612C9.60537 146.915 9.48942 145.194 9.49707 143.487L6.0035 142.8C5.82454 142.765 5.70769 142.591 5.74294 142.412L8.24614 129.678C8.26324 129.592 8.31365 129.516 8.3864 129.467C8.459 129.419 8.54826 129.4 8.63481 129.417L12.1279 130.104C12.7674 128.519 13.5265 126.97 14.3872 125.491L11.7073 123.152C11.5697 123.031 11.5555 122.823 11.6756 122.685L20.2101 112.909C20.3303 112.771 20.5392 112.757 20.6765 112.877L23.3634 115.223C24.7107 114.172 26.1421 113.212 27.6246 112.362L26.4703 108.987C26.4418 108.904 26.4476 108.813 26.4865 108.734C26.5249 108.655 26.5934 108.595 26.6764 108.567L38.9558 104.368C39.0385 104.34 39.1296 104.345 39.2085 104.384C39.2872 104.422 39.3474 104.491 39.3757 104.574L40.5266 107.94C42.222 107.703 43.9396 107.583 45.6515 107.595L46.3382 104.102C46.3735 103.923 46.5453 103.806 46.7268 103.841L59.4604 106.344C59.5464 106.361 59.6223 106.412 59.671 106.484C59.7201 106.557 59.7379 106.647 59.7211 106.733L59.0344 110.226C60.617 110.864 62.1664 111.624 63.647 112.485L65.987 109.805C66.0445 109.739 66.1262 109.698 66.2138 109.692C66.301 109.688 66.3875 109.716 66.4536 109.773L76.2295 118.308C76.3671 118.428 76.3813 118.637 76.2611 118.774L73.9156 121.461C74.966 122.809 75.9269 124.24 76.7767 125.723L80.1516 124.568C80.2343 124.54 80.325 124.546 80.4042 124.584C80.483 124.623 80.5432 124.691 80.5715 124.774L84.7707 137.054C84.7991 137.137 84.7934 137.228 84.7545 137.306C84.7161 137.385 84.6476 137.445 84.5646 137.474L81.1981 138.625C81.4353 140.32 81.5511 142.041 81.5434 143.749L85.0368 144.436C85.2158 144.471 85.3326 144.645 85.2975 144.825L82.7943 157.558C82.7772 157.644 82.7268 157.72 82.6541 157.769C82.581 157.818 82.4922 157.836 82.4057 157.819L78.9126 157.132C78.2737 158.716 77.5149 160.265 76.6536 161.745L79.3335 164.085C79.471 164.205 79.4853 164.414 79.3651 164.551L70.8304 174.327C70.7729 174.393 70.6912 174.434 70.6036 174.44C70.5173 174.443 70.4301 174.417 70.3638 174.359L67.6772 172.013C66.3288 173.064 64.8978 174.025 63.416 174.874L64.57 178.249C64.6291 178.422 64.5367 178.61 64.3639 178.669L52.0848 182.868C52.0024 182.897 51.9114 182.891 51.8322 182.852C51.7534 182.814 51.6933 182.745 51.6649 182.662L50.5137 179.296C48.8186 179.533 47.103 179.654 45.3888 179.641L44.7024 183.134C44.6853 183.22 44.6349 183.296 44.5623 183.345C44.5074 183.382 44.4432 183.402 44.3779 183.402ZM32.0322 180.307L44.1172 182.683L44.7925 179.245C44.8233 179.089 44.9592 178.977 45.1172 178.977C45.1185 178.977 45.1197 178.977 45.1214 178.977C46.9756 179.003 48.85 178.874 50.6894 178.602C50.8474 178.58 50.9992 178.672 51.0508 178.823L52.1838 182.136L63.8369 178.15L62.7014 174.829C62.6498 174.678 62.7134 174.512 62.8521 174.434C64.4688 173.524 66.0268 172.477 67.4826 171.325C67.6079 171.226 67.7859 171.23 67.9053 171.335L70.5494 173.643L78.649 164.366L76.0118 162.063C75.8917 161.958 75.8632 161.782 75.9446 161.645C76.893 160.045 77.7188 158.359 78.3991 156.633C78.4576 156.485 78.6113 156.399 78.7708 156.43L82.2087 157.106L84.5842 145.021L81.146 144.346C80.9897 144.315 80.8774 144.177 80.8792 144.017C80.9021 142.162 80.7761 140.288 80.5042 138.449C80.4809 138.291 80.5733 138.139 80.7245 138.088L84.0375 136.955L80.052 125.301L76.731 126.437C76.5805 126.489 76.4142 126.426 76.336 126.286C75.4248 124.669 74.3787 123.111 73.2266 121.656C73.1278 121.531 73.132 121.353 73.237 121.233L75.545 118.589L66.2674 110.489L63.9645 113.127C63.8597 113.247 63.6838 113.275 63.5468 113.194C61.9455 112.245 60.2591 111.419 58.535 110.739C58.3868 110.681 58.3012 110.524 58.3319 110.368L59.008 106.93L46.9233 104.554L46.2476 107.992C46.2169 108.147 46.081 108.259 45.923 108.259C45.9217 108.259 45.9205 108.259 45.9188 108.259C44.0635 108.233 42.1899 108.362 40.3508 108.634C40.1925 108.656 40.0407 108.565 39.9894 108.414L38.8567 105.101L27.2031 109.086L28.3391 112.407C28.3909 112.558 28.3274 112.724 28.1883 112.802C26.5708 113.713 25.0127 114.76 23.558 115.912C23.4328 116.011 23.2547 116.006 23.1353 115.901L20.4909 113.593L12.3916 122.871L15.0288 125.174C15.149 125.279 15.1773 125.454 15.096 125.591C14.1484 127.191 13.3224 128.877 12.641 130.603C12.5825 130.752 12.4267 130.837 12.2695 130.806L8.83162 130.13L6.45608 142.215L9.89429 142.891C10.0506 142.922 10.163 143.06 10.161 143.219C10.1381 145.073 10.2641 146.946 10.536 148.788C10.5593 148.945 10.4666 149.097 10.3157 149.149L7.00301 150.282L10.9882 161.935L14.3092 160.799C14.4597 160.748 14.626 160.811 14.7042 160.95C15.615 162.567 16.6612 164.125 17.8136 165.581C17.9124 165.706 17.9082 165.884 17.8032 166.003L15.4952 168.647L24.7731 176.747L27.0757 174.11C27.1807 173.989 27.3561 173.962 27.4934 174.043C29.0932 174.991 30.7792 175.816 32.5052 176.497C32.6534 176.556 32.739 176.712 32.7083 176.869L32.0322 180.307ZM45.5846 165.465C43.9334 165.465 42.2671 165.277 40.6095 164.895C29.4241 162.323 22.114 151.436 23.9674 140.11C24.9538 134.081 28.2851 128.889 33.3477 125.489C38.4107 122.09 44.4777 120.972 50.4308 122.341C61.6164 124.913 68.9263 135.8 67.0732 147.127C66.0865 153.156 62.7552 158.348 57.6923 161.747C54.0396 164.2 49.8633 165.465 45.5846 165.465ZM45.458 122.433C41.3081 122.433 37.2592 123.66 33.7166 126.039C28.8074 129.335 25.577 134.37 24.6205 140.216C22.8231 151.199 29.9115 161.756 40.7575 164.251C46.5319 165.578 52.4145 164.495 57.3237 161.198C62.2329 157.901 65.4633 152.866 66.4201 147.02C68.2172 136.037 61.1288 125.48 50.2829 122.986C48.6752 122.616 47.0587 122.433 45.458 122.433Z" fill="white"/>
<path d="M156.861 138.964C156.84 138.964 156.818 138.962 156.796 138.958L146.668 136.966C146.489 136.931 146.372 136.757 146.407 136.578L146.943 133.854C145.716 133.356 144.514 132.768 143.365 132.102L141.541 134.192C141.483 134.258 141.401 134.298 141.314 134.304C141.228 134.308 141.14 134.281 141.074 134.223L133.298 127.435C133.161 127.314 133.146 127.106 133.266 126.968L135.095 124.873C134.283 123.827 133.538 122.717 132.877 121.569L130.245 122.468C130.073 122.527 129.884 122.436 129.825 122.262L126.485 112.495C126.457 112.412 126.462 112.321 126.501 112.243C126.54 112.164 126.608 112.104 126.691 112.075L129.316 111.178C129.134 109.863 129.044 108.528 129.048 107.203L126.325 106.668C126.238 106.65 126.162 106.6 126.114 106.527C126.065 106.454 126.047 106.365 126.064 106.279L128.054 96.1504C128.072 96.0645 128.122 95.9886 128.195 95.9398C128.267 95.8908 128.356 95.872 128.443 95.8897L131.167 96.4252C131.666 95.1965 132.254 93.9954 132.919 92.8478L130.829 91.0233C130.763 90.9658 130.723 90.8841 130.717 90.7965C130.711 90.709 130.74 90.6227 130.798 90.5567L137.586 82.7804C137.644 82.7143 137.726 82.6738 137.813 82.6678C137.899 82.6636 137.987 82.691 138.053 82.7488L140.148 84.5778C141.194 83.7655 142.304 83.0203 143.453 82.3589L142.553 79.7271C142.524 79.6442 142.53 79.5534 142.569 79.4745C142.607 79.3958 142.676 79.3356 142.759 79.3073L152.526 75.9672C152.609 75.9391 152.699 75.9445 152.779 75.9834C152.857 76.0218 152.918 76.0903 152.946 76.1733L153.844 78.7978C155.159 78.6169 156.49 78.5124 157.818 78.5304L158.354 75.8062C158.389 75.6272 158.561 75.5093 158.742 75.5456L168.871 77.5366C169.05 77.5718 169.166 77.7458 169.131 77.9248L168.596 80.6489C169.824 81.1473 171.025 81.7358 172.174 82.4015L173.998 80.3114C174.056 80.2453 174.137 80.2048 174.225 80.1988C174.31 80.1952 174.398 80.2217 174.465 80.2798L182.241 87.0684C182.378 87.1886 182.392 87.3973 182.272 87.5348L180.443 89.63C181.256 90.6767 182.001 91.7862 182.662 92.9348L185.294 92.0349C185.465 91.9764 185.654 92.0679 185.714 92.241L189.054 102.008C189.082 102.091 189.076 102.182 189.038 102.261C188.999 102.34 188.931 102.4 188.848 102.428L186.223 103.326C186.404 104.641 186.494 105.976 186.491 107.3L189.215 107.836C189.394 107.871 189.511 108.045 189.475 108.224L187.485 118.353C187.467 118.439 187.417 118.515 187.344 118.563C187.271 118.612 187.182 118.63 187.096 118.614L184.372 118.078C183.874 119.305 183.286 120.507 182.62 121.655L184.71 123.48C184.776 123.537 184.817 123.619 184.822 123.707C184.828 123.794 184.799 123.88 184.741 123.946L177.953 131.723C177.895 131.789 177.813 131.829 177.726 131.835C177.639 131.839 177.552 131.812 177.486 131.754L175.391 129.925C174.343 130.739 173.234 131.483 172.086 132.144L172.986 134.776C173.045 134.949 172.953 135.137 172.78 135.196L163.013 138.536C162.841 138.594 162.653 138.503 162.593 138.33L161.695 135.705C160.404 135.883 159.095 135.973 157.794 135.973C157.769 135.973 157.745 135.973 157.721 135.973L157.185 138.697C157.154 138.855 157.015 138.964 156.861 138.964ZM147.12 136.381L156.6 138.245L157.124 135.576C157.155 135.421 157.291 135.31 157.449 135.31C157.45 135.31 157.451 135.31 157.453 135.31C158.921 135.326 160.411 135.228 161.871 135.012C162.029 134.991 162.181 135.082 162.232 135.232L163.112 137.803L172.253 134.677L171.371 132.099C171.32 131.949 171.383 131.783 171.522 131.705C172.805 130.983 174.041 130.153 175.196 129.237C175.322 129.138 175.5 129.143 175.619 129.248L177.671 131.039L184.025 123.761L181.978 121.974C181.858 121.869 181.83 121.694 181.911 121.556C182.663 120.287 183.318 118.949 183.859 117.579C183.917 117.431 184.07 117.345 184.23 117.376L186.898 117.901L188.762 108.421L186.093 107.897C185.937 107.866 185.825 107.728 185.827 107.568C185.845 106.097 185.745 104.61 185.529 103.15C185.506 102.992 185.599 102.84 185.749 102.789L188.32 101.909L185.194 92.7682L182.617 93.6496C182.467 93.7006 182.3 93.6379 182.222 93.4992C181.499 92.2152 180.669 90.9789 179.754 89.8245C179.656 89.6996 179.66 89.5215 179.765 89.4018L181.556 87.3495L174.278 80.9961L172.491 83.0432C172.386 83.1637 172.211 83.1911 172.074 83.1104C170.804 82.3581 169.466 81.7029 168.097 81.1624C167.948 81.1036 167.863 80.9473 167.894 80.791L168.418 78.1225L158.939 76.2591L158.414 78.9276C158.383 79.0827 158.247 79.1945 158.089 79.1945C158.088 79.1945 158.087 79.1945 158.085 79.1945C156.614 79.179 155.127 79.2762 153.667 79.4919C153.507 79.5138 153.357 79.4228 153.306 79.2716L152.426 76.7006L143.285 79.8267L144.167 82.4042C144.218 82.555 144.155 82.721 144.016 82.7992C142.732 83.5227 141.495 84.3528 140.342 85.2668C140.216 85.366 140.039 85.3612 139.919 85.2565L137.867 83.4649L131.513 90.7429L133.56 92.53C133.68 92.6347 133.709 92.8103 133.627 92.9476C132.876 94.2156 132.22 95.5538 131.68 96.9246C131.621 97.0728 131.466 97.1588 131.308 97.1277L128.64 96.6028L126.776 106.083L129.444 106.607C129.601 106.638 129.713 106.776 129.711 106.936C129.693 108.408 129.793 109.894 130.009 111.354C130.032 111.512 129.94 111.664 129.789 111.715L127.218 112.595L130.344 121.736L132.921 120.854C133.073 120.803 133.239 120.866 133.316 121.005C134.04 122.289 134.87 123.525 135.784 124.679C135.883 124.804 135.878 124.982 135.773 125.102L133.982 127.154L141.26 133.508L143.047 131.461C143.152 131.34 143.327 131.313 143.465 131.394C144.735 132.146 146.073 132.802 147.442 133.342C147.59 133.401 147.675 133.557 147.645 133.713L147.12 136.381ZM157.82 124.697C156.502 124.697 155.172 124.546 153.848 124.242C144.916 122.188 139.079 113.494 140.559 104.45C141.346 99.6356 144.007 95.4898 148.049 92.7757C152.092 90.0613 156.936 89.1692 161.69 90.2615C170.622 92.3151 176.459 101.009 174.979 110.053C174.192 114.867 171.531 119.013 167.489 121.728C164.572 123.686 161.237 124.697 157.82 124.697ZM157.72 90.4685C154.432 90.4685 151.224 91.4404 148.418 93.3247C144.529 95.9361 141.97 99.925 141.212 104.556C139.788 113.258 145.404 121.621 153.996 123.597C158.57 124.649 163.23 123.79 167.12 121.178C171.009 118.567 173.568 114.578 174.326 109.947C175.75 101.245 170.134 92.8819 161.542 90.9061C160.269 90.6133 158.988 90.4685 157.72 90.4685Z" fill="#F0F8EC"/>
<path d="M62.8592 142.008C66.2086 145.079 68.0783 150.725 65.6624 153.36C63.2464 155.995 57.4596 154.62 54.1102 151.549C50.7606 148.477 51.1169 144.872 53.533 142.237C55.9489 139.603 59.5098 138.936 62.8592 142.008Z" fill="#363E44"/>
<path d="M58.8744 155.71C56.7689 155.71 54.5343 155.211 52.6739 154.279C50.5422 153.211 49.1195 151.671 48.559 149.827C48.0435 148.129 48.2622 146.252 49.1915 144.397C50.1211 142.542 51.4938 141.242 53.1621 140.639C54.9746 139.983 57.0596 140.201 59.1914 141.269C61.3784 142.364 63.4458 144.271 64.721 146.37C66.1247 148.68 66.4268 150.894 65.5711 152.602C64.5016 154.736 61.8134 155.71 58.8744 155.71ZM55.3166 140.93C54.6436 140.93 53.9969 141.04 53.3871 141.261C51.8813 141.805 50.6349 142.992 49.7831 144.693C48.9311 146.394 48.7266 148.103 49.1921 149.635C49.6982 151.301 51.0046 152.703 52.9705 153.687C57.067 155.74 63.3382 155.581 64.9793 152.306C65.7297 150.808 65.437 148.823 64.1558 146.714C62.9424 144.717 60.9756 142.902 58.895 141.86C57.6613 141.242 56.4513 140.93 55.3166 140.93Z" fill="#363E44"/>
<path d="M65.2751 152.454C65.2751 152.454 65.5146 159.321 48.7906 161.858C28.5304 164.931 41.509 184.717 20.9741 186.904C0.439207 189.091 1.29306 203.627 1.29306 203.627L6.76074 209.35C8.34363 205.396 12.4006 198.398 21.6596 196.683C21.6596 196.683 12.1519 200.852 10.4472 213.208L22.4764 225.797L90.3377 176.288L65.2751 152.454Z" fill="#363E44"/>
<path d="M120.092 145.264C120.092 145.264 141.814 123.257 149.469 116.441C157.509 109.283 170.421 99.8861 171.712 101.709C172.448 102.748 170.952 104.394 166.661 108.526C167.087 108.534 168.371 108.878 168.895 109.953C169.671 111.544 168.557 112.523 168.501 112.656C168.645 112.647 170.298 112.633 170.998 113.61C171.786 114.71 171.565 115.838 171.016 116.748C171.376 116.736 172.908 116.941 173.533 117.913C174.345 119.177 173.596 120.662 172.657 121.473C170.936 122.96 166.131 126.908 163.856 129.32C159.38 134.067 145.748 153.057 137.466 158.208C135.632 149.968 120.092 145.264 120.092 145.264Z" fill="#BC8271"/>
<path d="M157.475 125.313C157.421 125.313 157.366 125.3 157.315 125.271C157.155 125.183 157.097 124.982 157.186 124.822C158.297 122.82 158.365 120.952 158.421 119.451C158.477 117.911 158.526 116.58 159.874 116.121C160.68 115.846 161.523 115.1 162.312 113.965C162.499 113.695 162.434 113.408 162.31 113.23C162.184 113.049 161.934 112.885 161.609 112.969L154.833 114.712C154.659 114.758 154.476 114.651 154.43 114.474C154.384 114.297 154.491 114.117 154.668 114.071L161.445 112.328C161.982 112.19 162.535 112.395 162.853 112.852C163.168 113.306 163.169 113.89 162.855 114.342C161.972 115.612 161.041 116.422 160.087 116.747C159.209 117.046 159.141 117.843 159.082 119.475C159.024 121.046 158.952 123.002 157.764 125.143C157.704 125.252 157.591 125.313 157.475 125.313Z" fill="#363E44"/>
<path d="M168.822 123.335C168.73 123.335 168.638 123.296 168.573 123.221C167.496 121.982 167.356 120.217 168.122 118.841L167.85 119.017C166.807 119.69 165.435 119.523 164.585 118.62C164.106 118.111 163.86 117.446 163.89 116.749C163.92 116.051 164.224 115.41 164.745 114.945L165.302 114.448C164.631 114.475 163.947 114.18 163.517 113.604C162.87 112.74 162.976 111.53 163.761 110.791L165.629 109.036C165.761 108.911 165.97 108.916 166.096 109.05C166.221 109.183 166.215 109.392 166.082 109.518L164.215 111.273C163.674 111.781 163.602 112.613 164.046 113.208C164.518 113.838 165.423 113.978 166.063 113.518L167.499 112.488C167.641 112.385 167.839 112.412 167.949 112.549C168.059 112.687 168.043 112.886 167.912 113.003L165.186 115.438C164.799 115.784 164.574 116.259 164.551 116.777C164.528 117.295 164.712 117.789 165.067 118.166C165.698 118.837 166.717 118.961 167.491 118.462L169.797 116.972C169.939 116.879 170.128 116.91 170.234 117.042C170.34 117.173 170.33 117.364 170.211 117.483L169.223 118.472C168.053 119.642 167.986 121.538 169.072 122.787C169.192 122.925 169.177 123.134 169.039 123.254C168.977 123.308 168.899 123.335 168.822 123.335Z" fill="#363E44"/>
<path d="M132.32 127.186L152.452 149.097L116.452 186.31L146.504 270.54L47.9438 269.297V254.158C47.9438 254.158 45.8129 254.858 35.7377 255.073C29.1391 255.214 15.6956 249.901 17.6352 234.816C20.9326 209.169 95.6527 162.504 132.32 127.186Z" fill="#EFBC73"/>
<path d="M31.6435 232.324C31.5489 232.324 31.4548 232.284 31.3893 232.206C31.2724 232.066 31.2907 231.857 31.431 231.74C39.3126 225.15 45.3419 222.692 49.3546 224.434C53.4782 226.224 53.8291 231.741 53.842 231.975C53.8524 232.157 53.7126 232.313 53.5303 232.324C53.3446 232.329 53.1919 232.194 53.1818 232.012C53.1787 231.959 52.8376 226.665 49.0882 225.039C45.3254 223.408 39.5274 225.833 31.8553 232.247C31.7934 232.299 31.7181 232.324 31.6435 232.324Z" fill="#E0AA63"/>
<path d="M47.9438 199.105C47.9438 199.105 62.088 172.48 100.238 163.027L99.8021 182.756L104.902 183.845C104.902 183.845 105.675 209.024 109.294 222.703L75.7091 243.723C75.7091 243.723 68.6329 224.057 55.8946 213.049L59.0964 207.884L47.9438 199.105Z" fill="#E0AA63"/>
<path d="M57.8181 190.861C57.8181 190.861 79.0926 173.058 87.2728 169.499L112.772 225.983L111.748 271.032L82.345 270.363L57.8181 190.861Z" fill="white"/>
<path d="M112.772 226.314C112.769 226.314 112.767 226.314 112.764 226.314C112.581 226.31 112.437 226.159 112.441 225.976L112.969 202.726C112.974 202.546 113.121 202.403 113.3 202.403C113.302 202.403 113.305 202.403 113.308 202.403C113.491 202.407 113.635 202.559 113.631 202.741L113.102 225.991C113.098 226.171 112.951 226.314 112.772 226.314Z" fill="#E0AA63"/>
<path d="M69.3773 190.326C69.1641 190.326 68.942 190.3 68.7129 190.248C67.9264 190.068 67.148 189.593 66.5208 188.909C65.8936 188.225 65.4873 187.408 65.3761 186.609C65.2588 185.765 65.4811 185.038 66.0018 184.56C67.0415 183.608 68.9646 184.007 70.2898 185.453C70.9167 186.137 71.3234 186.953 71.4342 187.752C71.5515 188.596 71.3292 189.324 70.8085 189.802C70.4313 190.148 69.9367 190.326 69.3773 190.326ZM67.4435 184.693C67.0573 184.693 66.7106 184.807 66.4487 185.047C66.093 185.373 65.9448 185.896 66.031 186.518C66.1237 187.185 66.471 187.876 67.0083 188.461C67.5455 189.047 68.203 189.453 68.8601 189.603C69.4721 189.742 70.0054 189.64 70.3613 189.314C70.717 188.988 70.8652 188.465 70.779 187.843C70.6863 187.176 70.3394 186.486 69.802 185.9C69.0902 185.123 68.193 184.693 67.4435 184.693Z" fill="#E0AA63"/>
<path d="M72.6073 192.259C72.1793 192.259 71.7297 192.197 71.2785 192.065C69.3957 191.517 68.1846 189.97 68.5786 188.616C68.9724 187.263 70.825 186.607 72.7075 187.155C74.5898 187.703 75.8011 189.25 75.4073 190.604C75.1078 191.633 73.965 192.259 72.6073 192.259ZM71.3521 187.619C70.2959 187.619 69.4293 188.06 69.2136 188.801C68.9217 189.805 69.9307 190.984 71.4633 191.43C72.9956 191.875 74.4804 191.423 74.7723 190.419C75.064 189.416 74.055 188.237 72.5227 187.791C72.1224 187.674 71.7255 187.619 71.3521 187.619Z" fill="#E0AA63"/>
<path d="M76.6632 192.765C74.921 192.765 73.4824 191.828 73.3567 190.542C73.2878 189.839 73.6086 189.149 74.2598 188.599C74.8757 188.078 75.7239 187.742 76.6473 187.652C78.6001 187.463 80.2981 188.447 80.435 189.851C80.572 191.254 79.0959 192.55 77.1444 192.741C76.982 192.757 76.8215 192.765 76.6632 192.765ZM77.1405 188.289C77 188.289 76.8569 188.296 76.712 188.31C75.9207 188.387 75.2014 188.67 74.6865 189.104C74.2065 189.51 73.9681 189.997 74.0151 190.478C74.1168 191.518 75.4912 192.237 77.0799 192.083C78.6687 191.928 79.8783 190.955 79.7769 189.915C79.6844 188.97 78.5404 188.289 77.1405 188.289Z" fill="#E0AA63"/>
<path d="M80.4016 191.187C80.3884 191.187 80.3755 191.187 80.3626 191.187C79.5105 191.177 78.8242 190.849 78.4294 190.263C77.642 189.094 78.3244 187.252 79.9507 186.156C81.578 185.061 83.5414 185.122 84.3285 186.291C84.7232 186.877 84.7691 187.636 84.4577 188.43C84.1631 189.181 83.5768 189.879 82.8071 190.398C82.0499 190.908 81.1971 191.187 80.4016 191.187ZM82.3622 186.023C81.7278 186.023 80.9943 186.251 80.3203 186.705C78.9966 187.597 78.3943 189.027 78.978 189.894C79.2477 190.294 79.7421 190.518 80.3704 190.526C80.3807 190.526 80.3914 190.526 80.402 190.526C81.067 190.526 81.7886 190.286 82.4378 189.849C83.0974 189.405 83.596 188.815 83.8422 188.188C84.0719 187.603 84.0495 187.061 83.7802 186.66C83.4936 186.235 82.9739 186.023 82.3622 186.023Z" fill="#E0AA63"/>
<path d="M84.1053 188.165C83.6868 188.165 83.2995 188.052 82.9681 187.826C82.3838 187.428 82.0592 186.741 82.0534 185.888C82.0483 185.082 82.3327 184.215 82.8547 183.448C83.377 182.681 84.0788 182.098 84.8311 181.807C85.6252 181.5 86.3847 181.549 86.9693 181.946C87.5533 182.344 87.8782 183.032 87.8836 183.884C87.8887 184.691 87.6043 185.557 87.0823 186.325C86.5604 187.092 85.8585 187.675 85.1062 187.966C84.7624 188.099 84.4248 188.165 84.1053 188.165ZM85.8295 182.27C85.5912 182.27 85.3351 182.321 85.0699 182.424C84.4416 182.667 83.8493 183.163 83.4019 183.82C82.9546 184.477 82.7104 185.21 82.7149 185.884C82.7191 186.512 82.9412 187.008 83.3401 187.279C83.739 187.551 84.2816 187.576 84.8675 187.349C85.4958 187.106 86.0881 186.61 86.5352 185.953C86.9825 185.295 87.2267 184.562 87.2222 183.889C87.218 183.26 86.9961 182.765 86.5973 182.494C86.3789 182.345 86.1172 182.27 85.8295 182.27Z" fill="#E0AA63"/>
<path d="M86.3699 183.51C85.7107 183.51 85.0802 183.169 84.5831 182.541C84.0822 181.909 83.7731 181.051 83.712 180.125C83.6512 179.199 83.8454 178.308 84.2591 177.615C84.6961 176.884 85.3249 176.455 86.0301 176.409C86.7312 176.362 87.4144 176.705 87.9435 177.373C88.4443 178.005 88.7535 178.864 88.8146 179.79C88.8753 180.716 88.6812 181.607 88.2675 182.299C87.8305 183.031 87.2017 183.459 86.4965 183.506C86.4542 183.508 86.4119 183.51 86.3699 183.51ZM86.1542 177.066C86.1273 177.066 86.1003 177.067 86.0734 177.069C85.5919 177.101 85.1494 177.415 84.827 177.954C84.4814 178.533 84.32 179.288 84.3722 180.082C84.4242 180.875 84.6832 181.603 85.1015 182.131C85.4917 182.623 85.9735 182.881 86.4533 182.846C86.9348 182.814 87.3773 182.5 87.6997 181.96C88.0453 181.382 88.2067 180.626 88.1545 179.833C88.1025 179.04 87.8436 178.312 87.4252 177.783C87.0569 177.318 86.6082 177.066 86.1542 177.066Z" fill="#E0AA63"/>
<path d="M85.8282 178.546C85.4103 178.546 84.971 178.421 84.5381 178.173C83.8382 177.772 83.2323 177.09 82.8318 176.253C81.9859 174.484 82.3321 172.55 83.6037 171.941C84.8767 171.334 86.5985 172.277 87.4447 174.046C87.8452 174.883 87.9957 175.783 87.8691 176.579C87.735 177.421 87.31 178.052 86.6727 178.357C86.4086 178.483 86.1237 178.546 85.8282 178.546ZM83.8893 172.538C82.9465 172.989 82.7398 174.527 83.4288 175.967C83.7719 176.684 84.2828 177.264 84.8671 177.599C85.4119 177.911 85.9513 177.969 86.3874 177.76C86.8227 177.552 87.1171 177.096 87.2159 176.475C87.3218 175.81 87.1913 175.049 86.8481 174.332C86.1593 172.891 84.8321 172.087 83.8893 172.538Z" fill="#E0AA63"/>
<path d="M189.886 265.39C188.256 268.874 184.757 271.101 180.911 271.101H119.156L146.813 211.978H214.872L189.886 265.39Z" fill="#363E44"/>
<path d="M78.6189 265.165C78.6189 268.459 81.2886 271.13 84.582 271.13H141.526L144.316 265.165H78.6189Z" fill="#363E44"/>
<path d="M175.161 238.452C175.177 236.205 173.369 234.37 171.123 234.355C168.877 234.339 167.043 236.147 167.027 238.394C167.011 240.641 168.819 242.475 171.065 242.491C173.311 242.507 175.145 240.698 175.161 238.452Z" fill="white"/>
<path d="M112.93 257.624C111.159 255.575 105.165 245.875 99.8698 246.312C94.5368 246.753 90.3044 250.885 87.8687 255.651C87.8749 255.672 87.8815 255.695 87.8875 255.716C87.829 257.196 87.9685 259.42 89.2188 261.529C90.6444 263.933 92.1484 263.885 94.0476 266.188C97.2533 270.074 96.0255 274.13 97.8077 274.226C99.0309 274.292 99.8486 271.96 100.041 269.639C100.239 267.256 99.3635 265.631 99.7211 265.471C100.114 265.296 100.789 267.061 101.831 269.179C102.315 270.163 101.98 273.683 103.638 274.02C104.959 274.289 106.223 270.716 105.519 267.486C105.021 265.201 103.212 263.831 103.532 263.548C103.773 263.336 104.831 264.179 105.526 265.178C106.673 266.825 106.37 270.431 107.901 270.711C109.402 270.986 110.451 267.846 109.992 264.834C109.604 262.295 107.514 260.863 107.91 260.51C108.188 260.261 109.257 260.708 111.118 262.266C112.671 263.566 114.853 267.097 116.457 265.674C117.805 264.478 115.602 260.716 112.93 257.624Z" fill="#BC8271"/>
<path d="M47.5709 228.889C47.5709 228.889 28.5575 240.96 39.1468 252.918L92.1278 257.988L102.462 246.816C85.589 237.255 65.6542 230.333 47.5709 228.889Z" fill="#BC8271"/>
<path d="M72.3698 234.149C72.344 234.149 72.3175 234.146 72.2914 234.14L57.3113 230.49C57.1337 230.447 57.0248 230.268 57.0682 230.091C57.1115 229.913 57.2911 229.804 57.4678 229.848L72.4479 233.497C72.6255 233.54 72.7344 233.719 72.691 233.896C72.6541 234.048 72.5188 234.149 72.3698 234.149Z" fill="#363E44"/>
<path d="M85.493 167.424C83.2895 170.114 74.122 166.954 74.122 166.954L67.1731 158.918C65.8824 154.199 68.6613 149.328 73.38 148.037C78.0989 146.746 82.9702 149.525 84.2611 154.244C84.2611 154.244 87.7372 164.684 85.493 167.424Z" fill="#BC8271"/>
<path d="M80.6337 179.889L80.3283 160.064L69.5974 160.297L69.9028 180.122C69.967 183.085 72.4213 185.435 75.3846 185.371C78.3479 185.307 80.6979 182.852 80.6337 179.889Z" fill="#BC8271"/>
<path d="M83.8936 156.759C83.8936 156.759 86.9769 158.614 87.0306 159.312C87.0948 160.145 84.5574 161.358 84.5574 161.358C84.5574 161.358 83.9589 156.748 83.8936 156.759Z" fill="#BC8271"/>
<path d="M76.1557 159.644C76.1557 159.644 76.9157 158.141 78.3817 157.119C78.6936 156.901 79.8465 159.808 79.4519 159.873C77.7164 160.16 76.1557 159.644 76.1557 159.644Z" fill="white"/>
<path d="M80.6468 159.537C82.7864 158.653 83.9041 156.443 83.9041 156.443C83.9041 156.443 81.5526 155.666 79.413 156.55C79.0383 156.705 78.697 156.902 78.3855 157.119C78.2333 158.192 78.6649 159.221 79.4501 159.873C79.8455 159.808 80.2498 159.701 80.6468 159.537Z" fill="#363E44"/>
<path d="M82.5185 163.79C82.3599 163.79 82.2 163.766 82.0443 163.716C81.4784 163.536 81.0556 163.038 80.9668 162.447C80.9396 162.267 81.0643 162.098 81.2449 162.071C81.4292 162.048 81.5944 162.168 81.6211 162.349C81.6724 162.692 81.9172 162.982 82.2451 163.086C82.5846 163.194 82.9608 163.092 83.2019 162.824C83.3243 162.688 83.5333 162.677 83.6689 162.799C83.8045 162.921 83.8156 163.13 83.6935 163.266C83.389 163.605 82.9583 163.79 82.5185 163.79Z" fill="#363E44"/>
<path d="M80.9503 169.109C80.9408 169.109 80.9315 169.109 80.9222 169.107C77.6916 168.835 74.1888 167.467 74.0412 167.409C73.8712 167.342 73.7876 167.15 73.8546 166.98C73.9215 166.81 74.1139 166.727 74.2834 166.794C74.3187 166.808 77.8457 168.184 80.9777 168.449C81.1598 168.464 81.2949 168.624 81.2794 168.806C81.2649 168.978 81.1205 169.109 80.9503 169.109Z" fill="#363E44"/>
<path d="M68.4578 176.594C65.9567 175.324 63.4655 156.84 65.106 153.057C67.2208 148.179 73.0961 145.405 77.7807 145.908C78.9323 146.031 81.5561 146.655 82.3945 148.32C83.0472 149.616 81.6874 152.247 79.4687 152.962C76.3493 153.967 72.0284 153.152 73.5513 156.716C78.1659 167.513 71.2059 177.988 68.4578 176.594Z" fill="#363E44"/>
<path d="M209.063 145.659H179.648L164.941 171.133L179.648 196.606H209.063L223.77 171.133L209.063 145.659Z" fill="#F0F8EC"/>
<path d="M194.355 153.453C187.168 153.453 181.342 159.28 181.342 166.467C181.342 173.654 194.355 189.515 194.355 189.515C194.355 189.515 207.369 173.654 207.369 166.467C207.369 159.28 201.542 153.453 194.355 153.453Z" fill="white"/>
<path d="M203.022 168.536C204.152 163.75 201.189 158.954 196.403 157.824C191.617 156.694 186.821 159.657 185.691 164.443C184.561 169.229 187.524 174.025 192.31 175.155C197.096 176.285 201.892 173.322 203.022 168.536Z" fill="#EFBC73"/>
<path d="M178.787 7.95825H148.063L132.702 34.5655L148.063 61.1728H178.787L194.148 34.5655L178.787 7.95825Z" fill="#F0F8EC"/>
<path d="M162.702 50.2574C171.649 50.2574 178.901 43.0051 178.901 34.0589C178.901 25.1126 171.649 17.8603 162.702 17.8603C153.756 17.8603 146.504 25.1126 146.504 34.0589C146.504 43.0051 153.756 50.2574 162.702 50.2574Z" fill="white"/>
<path d="M172.337 33.4348L157.084 24.6281V42.2415L172.337 33.4348Z" fill="#EFBC73"/>
<path d="M237.539 36.445H206.816L191.454 63.0523L206.816 89.6595H237.539L252.901 63.0523L237.539 36.445Z" fill="#D87355"/>
<path d="M238.55 60.3234H236.938C236.793 59.5374 236.587 58.773 236.326 58.0349L237.721 57.2292L234.993 52.5027L233.594 53.3104C233.08 52.7094 232.521 52.1496 231.92 51.6363L232.727 50.2374L228.001 47.5086L227.195 48.9042C226.457 48.6424 225.693 48.4364 224.907 48.292V46.6794H219.449V48.292C218.663 48.4364 217.899 48.6424 217.161 48.9042L216.355 47.5086L211.629 50.2374L212.436 51.6363C211.835 52.1496 211.275 52.7094 210.762 53.3104L209.363 52.5027L206.634 57.2292L208.03 58.0349C207.768 58.773 207.562 59.5374 207.418 60.3234H205.805V65.7811H207.418C207.562 66.5671 207.768 67.3316 208.03 68.0698L206.634 68.8755L209.363 73.602L210.762 72.7943C211.275 73.3952 211.835 73.9551 212.436 74.4684L211.628 75.8671L216.355 78.5959L217.16 77.2004C217.898 77.4621 218.663 77.6681 219.449 77.8126V79.4252H224.907V77.8126C225.693 77.6681 226.457 77.4621 227.195 77.2004L228.001 78.5959L232.727 75.8671L231.92 74.4684C232.521 73.9551 233.081 73.3952 233.594 72.7943L234.993 73.602L237.721 68.8755L236.326 68.0698C236.588 67.3316 236.794 66.5673 236.938 65.7811H238.55V60.3234ZM231.876 67.0968C230.892 69.6984 228.824 71.767 226.222 72.7505C217.382 76.092 209.138 67.8473 212.48 59.0076C213.463 56.406 215.532 54.3372 218.134 53.3537C226.973 50.0124 235.218 58.2572 231.876 67.0968Z" fill="white"/>
<path d="M222.178 75.3212C215.412 75.3212 209.909 69.8174 209.909 63.0521C209.909 57.0287 214.394 51.8127 220.341 50.9192C220.521 50.8954 220.69 51.0168 220.717 51.1974C220.744 51.378 220.619 51.5464 220.439 51.5736C214.813 52.4186 210.57 57.3531 210.57 63.052C210.57 69.4524 215.777 74.6597 222.178 74.6597C227.466 74.6597 232.087 71.0893 233.414 65.9773C233.46 65.8003 233.641 65.6938 233.817 65.7403C233.994 65.7862 234.1 65.9667 234.054 66.1434C232.651 71.5471 227.767 75.3212 222.178 75.3212Z" fill="#F2E6DC"/>
<path d="M93.734 79.797H63.0105L47.6488 106.404L63.0105 133.011H93.734L109.096 106.404L93.734 79.797Z" fill="#F0F8EC"/>
<path d="M86.3985 116.587C91.9748 111.011 91.9748 101.97 86.3985 96.394C80.8223 90.8177 71.7814 90.8177 66.2051 96.394C60.6288 101.97 60.6288 111.011 66.2051 116.587C71.7814 122.164 80.8223 122.164 86.3985 116.587Z" fill="white"/>
<path d="M78.3731 121.101C78.3443 121.101 78.3162 121.101 78.2879 121.101C74.3855 121.078 70.7256 119.537 67.9822 116.762C65.2387 113.987 63.7401 110.309 63.7626 106.407C63.785 102.505 65.3259 98.8445 68.1011 96.101C70.8558 93.3779 74.4998 91.8811 78.3699 91.8811C78.3987 91.8811 78.4274 91.8814 78.4562 91.8814C86.5115 91.9279 93.0276 98.5195 92.9814 106.575C92.9349 114.602 86.3894 121.101 78.3731 121.101ZM78.3699 92.5428C74.6749 92.5428 71.1963 93.9718 68.5662 96.5717C65.9165 99.1909 64.4455 102.685 64.4242 106.411C64.4026 110.136 65.8334 113.648 68.4525 116.297C71.072 118.946 74.5661 120.417 78.2918 120.439C78.3186 120.439 78.3464 120.439 78.3732 120.439C86.0271 120.439 92.2758 114.235 92.32 106.571C92.3643 98.8807 86.1431 92.5872 78.4524 92.5429C78.4251 92.5428 78.3974 92.5428 78.3699 92.5428Z" fill="#D87355"/>
<path d="M78.3971 99.8955C74.3988 99.8955 70.4684 99.2217 67.0297 97.9472C66.8586 97.8839 66.7709 97.6934 66.8347 97.5222C66.898 97.3511 67.0893 97.2632 67.2597 97.3271C70.6253 98.5744 74.4766 99.234 78.3971 99.234C82.2865 99.234 86.1121 98.5842 89.4603 97.3545C89.6317 97.2912 89.8219 97.3797 89.8846 97.5509C89.9476 97.7224 89.8597 97.9123 89.6883 97.9753C86.2681 99.2314 82.3633 99.8955 78.3971 99.8955Z" fill="#D87355"/>
<path d="M67.0139 115.478C66.8802 115.478 66.7542 115.396 66.7044 115.264C66.6398 115.093 66.7263 114.902 66.8972 114.838C70.369 113.531 74.3457 112.84 78.397 112.84C82.427 112.84 86.3846 113.524 89.8429 114.818C90.0137 114.882 90.1006 115.072 90.0367 115.243C89.9728 115.414 89.7824 115.501 89.611 115.437C86.2263 114.171 82.3486 113.502 78.397 113.502C74.4242 113.502 70.5283 114.178 67.1305 115.457C67.092 115.471 67.0526 115.478 67.0139 115.478Z" fill="#D87355"/>
<path d="M78.3722 121.101C74.1019 121.101 70.6279 114.547 70.6279 106.491C70.6279 98.4349 74.1019 91.8812 78.3722 91.8812C82.6423 91.8812 86.1163 98.4349 86.1163 106.491C86.1163 114.547 82.6423 121.101 78.3722 121.101ZM78.3722 92.5427C74.4666 92.5427 71.2894 98.8 71.2894 106.491C71.2894 114.182 74.4666 120.44 78.3722 120.44C82.2776 120.44 85.4548 114.182 85.4548 106.491C85.4548 98.7999 82.2776 92.5427 78.3722 92.5427Z" fill="#D87355"/>
<path d="M78.3722 121.082C78.1893 121.082 78.0414 120.934 78.0414 120.751V92.2426C78.0414 92.0597 78.1893 91.9118 78.3722 91.9118C78.555 91.9118 78.7029 92.0597 78.7029 92.2426V120.751C78.7029 120.934 78.555 121.082 78.3722 121.082Z" fill="#D87355"/>
<path d="M92.6542 106.846C92.6533 106.846 92.6525 106.846 92.6516 106.846L64.0821 106.624C63.8992 106.622 63.7527 106.473 63.7539 106.29C63.7552 106.109 63.9031 105.962 64.0847 105.962C64.0856 105.962 64.0863 105.962 64.0872 105.962L92.6567 106.185C92.8391 106.186 92.9861 106.335 92.9849 106.518C92.9836 106.7 92.8357 106.846 92.6542 106.846Z" fill="#D87355"/>
<path d="M251.604 96.0584H220.881L205.519 122.666L220.881 149.273H251.604L266.966 122.666L251.604 96.0584Z" fill="white"/>
<path d="M237.513 137.306C231.732 137.306 227.029 132.603 227.029 126.822V118.907C227.029 118.724 227.177 118.576 227.359 118.576H247.667C247.85 118.576 247.998 118.724 247.998 118.907V126.822C247.997 132.603 243.294 137.306 237.513 137.306ZM227.69 119.238V126.822C227.69 132.238 232.097 136.644 237.513 136.644C242.929 136.644 247.336 132.238 247.336 126.822V119.238H227.69ZM238.324 131.981H236.702C236.52 131.981 236.372 131.833 236.372 131.65V127.585C235.455 127.148 234.855 126.212 234.855 125.187C234.855 123.721 236.047 122.528 237.513 122.528C238.979 122.528 240.171 123.721 240.171 125.187C240.171 126.212 239.571 127.148 238.654 127.585V131.65C238.654 131.833 238.506 131.981 238.324 131.981ZM237.033 131.319H237.993V127.366C237.993 127.228 238.079 127.104 238.208 127.056C238.987 126.767 239.51 126.015 239.51 125.187C239.51 124.085 238.614 123.19 237.513 123.19C236.412 123.19 235.516 124.085 235.516 125.187C235.516 126.015 236.039 126.767 236.818 127.056C236.947 127.104 237.033 127.228 237.033 127.366V131.319H237.033Z" fill="#8B865C"/>
<path d="M246.548 117.11C246.365 117.11 246.217 116.962 246.217 116.779C246.217 111.98 242.313 108.075 237.513 108.075C232.713 108.075 228.808 111.98 228.808 116.779C228.808 116.962 228.661 117.11 228.478 117.11C228.295 117.11 228.147 116.962 228.147 116.779C228.147 111.615 232.348 107.413 237.513 107.413C242.677 107.413 246.879 111.615 246.879 116.779C246.879 116.962 246.731 117.11 246.548 117.11Z" fill="#8B865C"/>
<path d="M117.882 21.8221H87.1591L71.7973 48.4293L87.1591 75.0366H117.882L133.244 48.4293L117.882 21.8221Z" fill="white"/>
<path d="M87.1961 58.02C87.1092 58.02 87.0255 57.9858 86.9638 57.9247C86.9011 57.8631 86.866 57.7791 86.8653 57.6914L86.7558 40.5507C86.7544 40.3678 86.9017 40.219 87.0843 40.2176L116.043 40.0325C116.044 40.0325 116.045 40.0325 116.046 40.0325C116.227 40.0325 116.375 40.1792 116.376 40.3611L116.486 57.5018C116.487 57.5897 116.453 57.674 116.391 57.7363C116.329 57.799 116.245 57.8341 116.158 57.8349L87.1983 58.02C87.1973 58.02 87.1967 58.02 87.1961 58.02ZM87.4196 40.8769L87.5246 57.3563L115.822 57.1757L115.717 40.6963L87.4196 40.8769Z" fill="#8B865C"/>
<path d="M101.582 48.7943C100.518 48.7943 99.4539 48.5033 98.5014 47.9204L88.5081 41.8056C88.352 41.7103 88.303 41.5067 88.3985 41.3512C88.4938 41.1952 88.698 41.1454 88.8529 41.2417L98.8462 47.3565C100.558 48.4036 102.676 48.3901 104.373 47.3209L114.618 40.8715C114.773 40.7748 114.976 40.8207 115.074 40.9751C115.171 41.1298 115.125 41.3339 114.97 41.4314L104.726 47.8809C103.759 48.4894 102.671 48.7943 101.582 48.7943Z" fill="#8B865C"/>
<path d="M264.305 238.453H262.1C261.903 237.379 261.621 236.333 261.263 235.324L263.171 234.223L259.44 227.76L257.528 228.864C256.826 228.043 256.061 227.277 255.239 226.576L256.343 224.663L249.881 220.932L248.779 222.84C247.77 222.482 246.725 222.201 245.65 222.004V219.799H238.188V222.004C237.113 222.201 236.068 222.482 235.059 222.84L233.957 220.932L227.495 224.663L228.599 226.576C227.777 227.278 227.012 228.043 226.31 228.864L224.397 227.76L220.666 234.223L222.574 235.324C222.216 236.334 221.935 237.379 221.737 238.453H219.533V245.916H221.738C221.935 246.99 222.217 248.036 222.575 249.045L220.666 250.146L224.397 256.609L226.31 255.505C227.012 256.326 227.777 257.092 228.599 257.794L227.495 259.706L233.957 263.437L235.059 261.529C236.068 261.887 237.113 262.168 238.188 262.366V264.571H245.65V262.366C246.725 262.168 247.77 261.887 248.779 261.529L249.881 263.437L256.343 259.706L255.239 257.794C256.061 257.092 256.826 256.326 257.528 255.505L259.441 256.609L263.172 250.147L261.264 249.045C261.621 248.036 261.903 246.991 262.1 245.916H264.305L264.305 238.453ZM253.347 246.951C252.188 250.016 249.75 252.454 246.685 253.613C236.268 257.551 226.553 247.835 230.491 237.418C231.65 234.353 234.087 231.915 237.153 230.756C247.57 226.818 257.285 236.534 253.347 246.951Z" fill="#F0F8EC"/>
<path d="M241.919 258.839C232.736 258.839 225.265 251.368 225.265 242.184C225.265 234.008 231.353 226.928 239.425 225.716C239.608 225.692 239.774 225.813 239.802 225.994C239.829 226.174 239.704 226.343 239.524 226.37C231.772 227.534 225.926 234.333 225.926 242.184C225.926 251.003 233.101 258.177 241.919 258.177C249.205 258.177 255.571 253.258 257.4 246.215C257.445 246.038 257.626 245.93 257.803 245.978C257.98 246.023 258.086 246.204 258.04 246.381C256.136 253.716 249.507 258.839 241.919 258.839Z" fill="#F2E6DC"/>
</svg>
