<svg width="33" height="36" viewBox="0 0 33 36" fill="none" xmlns="http://www.w3.org/2000/svg">
<path opacity="0.2" d="M16.5 18C16.5 20.3869 17.4482 22.6761 19.136 24.364C20.8239 26.0518 23.1131 27 25.5 27C27.4256 27.0769 28.8563 26.5781 30.3525 25.6181C30.4657 25.5474 30.5958 25.5081 30.7293 25.5044C30.8628 25.5007 30.9948 25.5327 31.1118 25.5971C31.2287 25.6615 31.3264 25.756 31.3947 25.8708C31.4629 25.9856 31.4993 26.1165 31.5 26.25V33C31.5 33.3978 31.342 33.7794 31.0607 34.0607C30.7794 34.342 30.3978 34.5 30 34.5H3C2.60218 34.5 2.22064 34.342 1.93934 34.0607C1.65804 33.7794 1.5 33.3978 1.5 33V3C1.5 2.60218 1.65804 2.22064 1.93934 1.93934C2.22064 1.65804 2.60218 1.5 3 1.5H30C30.3978 1.5 30.7794 1.65804 31.0607 1.93934C31.342 2.22064 31.5 2.60218 31.5 3V9.75C31.4996 9.88424 31.4631 10.0159 31.3944 10.1312C31.3258 10.2466 31.2274 10.3414 31.1096 10.4057C30.9918 10.4701 30.8589 10.5017 30.7247 10.4971C30.5906 10.4926 30.4601 10.4522 30.3469 10.38C28.9812 9.52442 27.4117 9.04926 25.8008 9.00367C24.1898 8.95808 22.596 9.34372 21.1841 10.1207C19.7722 10.8977 18.5935 12.0378 17.77 13.423C16.9465 14.8083 16.508 16.3885 16.5 18Z" fill="#65B741"/>
<path d="M25.5 10.5C26.9273 10.4872 28.3284 10.8842 29.5369 11.6437C29.8768 11.8614 30.269 11.9835 30.6723 11.9975C31.0757 12.0114 31.4754 11.9166 31.8295 11.7229C32.1836 11.5293 32.4791 11.2439 32.6851 10.8968C32.891 10.5497 32.9998 10.1536 33 9.75V3C33 2.20435 32.6839 1.44129 32.1213 0.87868C31.5587 0.31607 30.7956 0 30 0H3C2.20435 0 1.44129 0.31607 0.87868 0.87868C0.31607 1.44129 0 2.20435 0 3V33C0 33.7957 0.31607 34.5587 0.87868 35.1213C1.44129 35.6839 2.20435 36 3 36H30C30.7956 36 31.5587 35.6839 32.1213 35.1213C32.6839 34.5587 33 33.7957 33 33V26.25C32.9995 25.8471 32.8908 25.4517 32.6853 25.1052C32.4798 24.7587 32.185 24.4737 31.8317 24.28C31.4784 24.0863 31.0796 23.991 30.6769 24.0041C30.2742 24.0172 29.8825 24.1382 29.5425 24.3544C28.1831 25.2262 27.0281 25.5562 25.56 25.5H25.5C23.5109 25.5 21.6032 24.7098 20.1967 23.3033C18.7902 21.8968 18 19.9891 18 18C18 16.0109 18.7902 14.1032 20.1967 12.6967C21.6032 11.2902 23.5109 10.5 25.5 10.5ZM15 18C15.0034 20.7785 16.1067 23.4427 18.0686 25.4102C20.0305 27.3777 22.6915 28.4886 25.47 28.5C27.0374 28.5777 28.5982 28.2476 30 27.5419V33H3V3H30V8.48063C28.3957 7.73609 26.6301 7.40655 24.8653 7.52229C23.1005 7.63803 21.393 8.19533 19.8997 9.143C18.4065 10.0907 17.1752 11.3984 16.3191 12.9459C15.4629 14.4935 15.0094 16.2314 15 18Z" fill="#65B741"/>
</svg>
