<svg width="24" height="25" viewBox="0 0 24 25" fill="none" xmlns="http://www.w3.org/2000/svg">
<path d="M16.175 13.5H5C4.71667 13.5 4.47934 13.404 4.288 13.212C4.09667 13.02 4.00067 12.7827 4 12.5C3.99934 12.2173 4.09534 11.98 4.288 11.788C4.48067 11.596 4.718 11.5 5 11.5H16.175L11.275 6.60001C11.075 6.40001 10.979 6.16667 10.987 5.90001C10.995 5.63334 11.0993 5.40001 11.3 5.20001C11.5 5.01667 11.7333 4.92067 12 4.91201C12.2667 4.90334 12.5 4.99934 12.7 5.20001L19.3 11.8C19.4 11.9 19.471 12.0083 19.513 12.125C19.555 12.2417 19.5757 12.3667 19.575 12.5C19.5743 12.6333 19.5537 12.7583 19.513 12.875C19.4723 12.9917 19.4013 13.1 19.3 13.2L12.7 19.8C12.5167 19.9833 12.2877 20.075 12.013 20.075C11.7383 20.075 11.5007 19.9833 11.3 19.8C11.1 19.6 11 19.3627 11 19.088C11 18.8133 11.1 18.5757 11.3 18.375L16.175 13.5Z" fill="#222222"/>
</svg>
