<svg width="70" height="70" viewBox="0 0 70 70" fill="none" xmlns="http://www.w3.org/2000/svg">
<g clip-path="url(#clip0_17_2204)">
<path d="M35 70C54.33 70 70 54.33 70 35C70 15.67 54.33 0 35 0C15.67 0 0 15.67 0 35C0 54.33 15.67 70 35 70Z" fill="#C774F0"/>
<path d="M68.7418 25.6754L55.5078 12.4414L52.9845 14.9646L55.0353 17.0153L49.3793 22.6714L48.2814 21.5735H31.0896L29.4079 23.2552L18.594 12.4414L16.0709 14.9646L18.3328 17.2266L16.0707 19.4886V51.6316L18.245 53.8058L14.4922 57.5586L25.6754 68.7418C28.6444 69.5604 31.7707 70 35 70C54.33 70 70 54.33 70 35C70 31.7707 69.5604 28.6444 68.7418 25.6754Z" fill="#9F4AD4"/>
<path d="M37.7344 44.5703L37.4046 49.3555L37.7344 54.1406H40.4687V44.5703H37.7344Z" fill="#65B741"/>
<path d="M32.2656 44.5703L31.9841 49.3555L32.2656 54.1406H35L35.3619 49.3555L35 44.5703H32.2656Z" fill="#65B741"/>
<path d="M35 44.5703H37.7344V54.1406H35V44.5703Z" fill="#65B741"/>
<path d="M26.7969 44.5703V54.1406H29.5312L29.9735 49.3555L29.5312 44.5703H26.7969Z" fill="#65B741"/>
<path d="M29.5312 44.5703H32.2656V54.1406H29.5312V44.5703Z" fill="#65B741"/>
<path d="M45.9375 33.6328L45.5917 38.418L45.9375 43.2031H48.6719L49.0418 38.418L48.6719 33.6328H45.9375Z" fill="#5EF8DB"/>
<path d="M40.4687 33.6328L40.0424 38.418L40.4687 43.2031H43.2031L43.6133 38.418L43.2031 33.6328H40.4687Z" fill="#5EF8DB"/>
<path d="M35 33.6328V43.2031H37.7344L38.1847 38.418L37.7344 33.6328H35Z" fill="#5EF8DB"/>
<path d="M48.6719 33.6328V43.2031H51.4062L51.8647 38.418L51.4062 33.6328H48.6719Z" fill="#1EE2BD"/>
<path d="M43.2031 33.6328H45.9375V43.2031H43.2031V33.6328Z" fill="#1EE2BD"/>
<path d="M37.7344 33.6328H40.4688V43.2031H37.7344V33.6328Z" fill="#1EE2BD"/>
<path d="M24.0625 22.6953L23.7327 27.4805L24.0625 32.2656H26.7969V22.6953H24.0625Z" fill="#65B741"/>
<path d="M26.7913 25.7822L28.7245 23.849L34.5241 29.6486L32.5909 31.5818L26.7913 25.7822Z" fill="#65B741"/>
<path d="M18.5938 22.6953L18.2801 27.4805L18.5938 32.2656H21.3281L21.69 27.4805L21.3281 22.6953H18.5938Z" fill="#65B741"/>
<path d="M21.3281 22.6953H24.0625V32.2656H21.3281V22.6953Z" fill="#65B741"/>
<path d="M35 45.2539H15.8594V42.5195H35L35.6515 43.8867L35 45.2539Z" fill="white"/>
<path d="M35 42.5195H54.1406V45.2539H35V42.5195Z" fill="#E9EDF5"/>
<path d="M35 34.3164H15.8594V31.582H35L35.6515 32.9492L35 34.3164Z" fill="white"/>
<path d="M35 31.582H54.1406V34.3164H35V31.582Z" fill="#E9EDF5"/>
<path d="M35 23.3789H15.8594V20.6445H35L35.6515 22.0117L35 23.3789Z" fill="white"/>
<path d="M35 20.6445H54.1406V23.3789H35V20.6445Z" fill="#E9EDF5"/>
<path d="M18.5938 54.5187L14.4922 53.457V12.4414H18.5938V54.5187Z" fill="#E9EDF5"/>
<path d="M55.5078 53.457L51.4062 54.5187V12.4414H55.5078V53.457Z" fill="#CDD2E1"/>
<path d="M35 57.5586H14.4922V53.457H35L35.6515 55.5078L35 57.5586Z" fill="white"/>
<path d="M35 53.457H55.5078V57.5586H35V53.457Z" fill="#E9EDF5"/>
</g>
<defs>
<clipPath id="clip0_17_2204">
<rect width="70" height="70" fill="white"/>
</clipPath>
</defs>
</svg>
